<svg width="48" height="48" viewBox="0 0 48 48" fill="none" xmlns="http://www.w3.org/2000/svg">
<path d="M30.3846 11.4231C30.1479 10.855 29.5883 10.4892 28.973 10.5002C28.3577 10.5113 27.8116 10.8971 27.5955 11.4733L19.8033 32.2525L15.3416 23.3292C15.0876 22.821 14.5682 22.5 14 22.5H9V25.5H13.0729L18.6584 36.6708C18.9252 37.2044 19.4828 37.5292 20.0786 37.4979C20.6744 37.4667 21.195 37.0853 21.4045 36.5267L29.0734 16.0762L32.6154 24.5769C32.8483 25.1359 33.3944 25.5 34 25.5H39V22.5H35L30.3846 11.4231Z" fill="#FAFAFA"/>
<path fill-rule="evenodd" clip-rule="evenodd" d="M45 24C45 35.598 35.598 45 24 45C12.402 45 3 35.598 3 24C3 12.402 12.402 3 24 3C35.598 3 45 12.402 45 24ZM42 24C42 33.9411 33.9411 42 24 42C14.0589 42 6 33.9411 6 24C6 14.0589 14.0589 6 24 6C33.9411 6 42 14.0589 42 24Z" fill="#FAFAFA"/>
</svg>
