<svg width="48" height="48" viewBox="0 0 48 48" fill="none" xmlns="http://www.w3.org/2000/svg">
<path d="M9 6H39C39.788 5.99976 40.5683 6.1548 41.2964 6.45624C42.0244 6.75769 42.686 7.19963 43.2432 7.75683C43.8004 8.31403 44.2423 8.97556 44.5438 9.70362C44.8452 10.4317 45.0002 11.212 45 12V30C45.0001 30.788 44.845 31.5682 44.5436 32.2963C44.2421 33.0243 43.8001 33.6858 43.2429 34.243C42.6858 34.8001 42.0243 35.2421 41.2963 35.5436C40.5682 35.845 39.788 36.0001 39 36H31.7469L26.6037 45L24 43.5L30 33H39C39.3942 33.0007 39.7846 32.9235 40.1488 32.773C40.5131 32.6225 40.8441 32.4015 41.1228 32.1228C41.4015 31.8441 41.6225 31.5131 41.773 31.1488C41.9235 30.7846 42.0007 30.3942 42 30V12C42.0007 11.6058 41.9235 11.2154 41.773 10.8512C41.6225 10.4869 41.4015 10.1559 41.1228 9.87718C40.8441 9.59847 40.5131 9.37752 40.1488 9.22699C39.7846 9.07647 39.3942 8.99933 39 9H9C8.60585 8.99933 8.21544 9.07647 7.85116 9.22699C7.48688 9.37752 7.15589 9.59847 6.87718 9.87718C6.59847 10.1559 6.37752 10.4869 6.22699 10.8512C6.07647 11.2154 5.99933 11.6058 6 12V30C5.99933 30.3942 6.07647 30.7846 6.22699 31.1488C6.37752 31.5131 6.59847 31.8441 6.87718 32.1228C7.15589 32.4015 7.48688 32.6225 7.85116 32.773C8.21544 32.9235 8.60585 33.0007 9 33H22V36H9C8.21203 36.0001 7.43175 35.845 6.70374 35.5436C5.97572 35.2421 5.31423 34.8001 4.75705 34.243C4.19987 33.6858 3.75792 33.0243 3.45644 32.2963C3.15496 31.5682 2.99986 30.788 3 30V12C2.99976 11.212 3.1548 10.4317 3.45624 9.70362C3.75769 8.97556 4.19963 8.31403 4.75683 7.75683C5.31403 7.19963 5.97556 6.75769 6.70362 6.45624C7.43168 6.1548 8.212 5.99976 9 6Z" fill="#FAFAFA"/>
<path d="M36 15H12V18H36V15Z" fill="#FAFAFA"/>
<path d="M26 24H12V27H26V24Z" fill="#FAFAFA"/>
</svg>
