<svg width="48" height="48" viewBox="0 0 48 48" fill="none" xmlns="http://www.w3.org/2000/svg">
<path fill-rule="evenodd" clip-rule="evenodd" d="M24 47C24.6305 46.2001 25.3336 45.4715 26.0963 44.8209C28.5635 42.7165 31.6556 41.4282 34.941 41.1855L44.1474 40.5053C45.1919 40.4281 46 39.5581 46 38.5107V6.15322C46 4.9906 45.0121 4.07299 43.8526 4.15865L34.1896 4.87257C30.6361 5.13511 27.2846 6.58794 24.6695 8.98157C24.4405 9.19109 24.2173 9.40781 24 9.63158C23.7827 9.40781 23.5595 9.19109 23.3306 8.98157C20.7154 6.58794 17.3639 5.13511 13.8104 4.87257L4.14736 4.15865C2.9879 4.07299 2 4.9906 2 6.15322V38.5107C2 39.5581 2.80809 40.4281 3.85264 40.5053L13.059 41.1855C16.3444 41.4282 19.4365 42.7165 21.9037 44.8209C22.6664 45.4715 23.3695 46.2001 24 47ZM25.5 12.3933V38.4909C28.1922 36.5967 31.3721 35.441 34.7199 35.1936L43 34.5819V7.22982L34.4107 7.86442C31.2786 8.09582 28.3402 9.46818 26.1523 11.7214L25.5 12.3933ZM22.5 38.4909C19.8078 36.5967 16.6279 35.441 13.2801 35.1936L5 34.5819V7.22982L13.5893 7.86441C16.7215 8.09582 19.6598 9.46818 21.8477 11.7214L22.5 12.3933V38.4909Z" fill="#FAFAFA"/>
</svg>
