<svg width="48" height="48" viewBox="0 0 48 48" fill="none" xmlns="http://www.w3.org/2000/svg">
<path d="M33.9105 21.855L36 24L24 36L12 24L14.1405 21.855L22.5 30.225V12L25.5 12V30.225L33.9105 21.855Z" fill="#FAFAFA"/>
<path fill-rule="evenodd" clip-rule="evenodd" d="M6.53914 12.333C4.23163 15.7865 3 19.8466 3 24C3.00627 29.5676 5.22078 34.9054 9.15768 38.8423C13.0946 42.7792 18.4324 44.9937 24 45C28.1534 45 32.2135 43.7684 35.667 41.4609C39.1204 39.1534 41.812 35.8736 43.4015 32.0364C44.9909 28.1991 45.4068 23.9767 44.5965 19.9031C43.7862 15.8295 41.7861 12.0877 38.8492 9.15077C35.9123 6.21386 32.1705 4.21381 28.0969 3.40352C24.0233 2.59323 19.8009 3.0091 15.9636 4.59854C12.1264 6.18798 8.84665 8.8796 6.53914 12.333ZM38.9664 13.9997C40.9443 16.9598 42 20.4399 42 24C41.9946 28.7722 40.0964 33.3474 36.7219 36.7219C33.3474 40.0964 28.7722 41.9946 24 42C20.4399 42 16.9598 40.9443 13.9997 38.9665C11.0396 36.9886 8.73254 34.1774 7.37017 30.8883C6.00779 27.5992 5.65133 23.98 6.34586 20.4884C7.0404 16.9967 8.75473 13.7894 11.2721 11.2721C13.7894 8.75474 16.9967 7.04041 20.4884 6.34587C23.98 5.65134 27.5992 6.0078 30.8883 7.37018C34.1774 8.73256 36.9886 11.0397 38.9664 13.9997Z" fill="#FAFAFA"/>
</svg>
