<svg width="48" height="48" viewBox="0 0 48 48" fill="none" xmlns="http://www.w3.org/2000/svg">
<path fill-rule="evenodd" clip-rule="evenodd" d="M30 6C32.0767 6 34.1068 6.61581 35.8335 7.76957C37.5602 8.92332 38.906 10.5632 39.7007 12.4818C40.4955 14.4004 40.7034 16.5116 40.2982 18.5484C39.8931 20.5852 38.8931 22.4562 37.4246 23.9246C35.9562 25.3931 34.0852 26.3931 32.0484 26.7982C30.0116 27.2034 27.9004 26.9955 25.9818 26.2007C24.0632 25.406 22.4233 24.0602 21.2696 22.3335C20.1158 20.6068 19.5 18.5767 19.5 16.5C19.5 13.7152 20.6062 11.0445 22.5754 9.07538C24.5445 7.10625 27.2152 6 30 6ZM30 9C28.5166 9 27.0666 9.43987 25.8332 10.264C24.5998 11.0881 23.6386 12.2594 23.0709 13.6299C22.5032 15.0003 22.3547 16.5083 22.6441 17.9632C22.9335 19.418 23.6478 20.7544 24.6967 21.8033C25.7456 22.8522 27.082 23.5665 28.5368 23.8559C29.9917 24.1453 31.4997 23.9968 32.8701 23.4291C34.2406 22.8614 35.4119 21.9001 36.236 20.6668C37.0601 19.4334 37.5 17.9834 37.5 16.5C37.5 14.5109 36.7098 12.6032 35.3033 11.1967C33.8968 9.79018 31.9891 9 30 9Z" fill="#FAFAFA"/>
<path d="M15 42H18V40.5C18.0023 38.5116 18.7933 36.6053 20.1993 35.1993C21.6053 33.7933 23.5116 33.0023 25.5 33H34.5C36.4884 33.0023 38.3947 33.7933 39.8007 35.1993C41.2067 36.6053 41.9977 38.5116 42 40.5V42H45V40.5C44.9967 37.7162 43.8895 35.0474 41.921 33.079C39.9526 31.1105 37.2838 30.0033 34.5 30H25.5C22.7162 30.0033 20.0474 31.1105 18.079 33.079C16.1105 35.0474 15.0033 37.7162 15 40.5V42Z" fill="#FAFAFA"/>
<path d="M2 23H8V17H11V23H17V26H11V32H8V26H2V23Z" fill="#FAFAFA"/>
</svg>
