<svg width="49" height="48" viewBox="0 0 49 48" fill="none" xmlns="http://www.w3.org/2000/svg">
<path d="M3.16894 24C3.16894 19.8466 4.40056 15.7865 6.70807 12.333C9.01558 8.8796 12.2953 6.18798 16.1326 4.59854C19.9698 3.0091 24.1922 2.59323 28.2658 3.40352C32.3394 4.21381 36.0813 6.21386 39.0182 9.15077C41.9551 12.0877 43.9551 15.8295 44.7654 19.9031C45.5757 23.9767 45.1598 28.1991 43.5704 32.0364C41.981 35.8736 39.2893 39.1534 35.8359 41.4609C32.3825 43.7684 28.3223 45 24.1689 45C18.6013 44.9937 13.2635 42.7792 9.32662 38.8423C5.38972 34.9054 3.17521 29.5676 3.16894 24Z" fill="#51595E"/>
<path d="M24.169 3C20.0155 3 15.9554 4.23163 12.502 6.53914C9.04855 8.84665 6.35692 12.1264 4.76748 15.9636C3.17804 19.8009 2.76217 24.0233 3.57246 28.0969C4.38275 32.1705 6.38281 35.9123 9.31971 38.8492C12.2566 41.7861 15.9985 43.7862 20.0721 44.5965C24.1457 45.4068 28.3681 44.9909 32.2053 43.4015C36.0426 41.812 39.3223 39.1204 41.6298 35.667C43.9373 32.2135 45.169 28.1534 45.169 24C45.1627 18.4324 42.9482 13.0946 39.0113 9.15769C35.0744 5.22078 29.7366 3.00627 24.169 3ZM6.19896 24.591L8.20655 25.2597L10.669 28.9541V30.8787C10.669 31.2765 10.827 31.6581 11.1083 31.9394L15.169 36V39.5648C12.5259 38.0353 10.3157 35.8582 8.7464 33.2386C7.17713 30.6189 6.30046 27.643 6.19896 24.591ZM24.169 42C22.8714 41.9975 21.5779 41.8543 20.3113 41.5729L21.169 39L23.8759 32.2326C23.9662 32.0067 24.0003 31.7622 23.9751 31.5202C23.9499 31.2782 23.8662 31.0459 23.7313 30.8434L21.6143 27.6679C21.4773 27.4625 21.2917 27.294 21.074 27.1775C20.8562 27.0609 20.6131 27 20.3662 27H12.9712L11.0989 24.1911L14.2901 21H16.669V24H19.669V19.8984L25.4713 9.74415L22.8667 8.25585L21.5843 10.5H17.4718L15.8428 8.05665C18.0296 6.90251 20.4331 6.2169 22.8998 6.04357C25.3664 5.87025 27.8422 6.21302 30.169 7.05V12C30.169 12.3978 30.327 12.7794 30.6083 13.0607C30.8896 13.342 31.2711 13.5 31.669 13.5H33.8662C34.1131 13.5 34.3562 13.4391 34.574 13.3225C34.7917 13.206 34.9773 13.0375 35.1143 12.8321L36.4297 10.8589C38.1432 12.4566 39.5293 14.3726 40.5107 16.5H34.399C34.0522 16.5 33.7161 16.6201 33.4479 16.84C33.1798 17.0598 32.9961 17.3658 32.9281 17.7058L31.8449 24.4121C31.794 24.7275 31.845 25.0509 31.9907 25.3353C32.1364 25.6196 32.3691 25.85 32.6549 25.9929L37.669 28.5L38.6966 34.5835C37.0318 36.8781 34.8477 38.7462 32.3228 40.0352C29.7979 41.3241 27.0038 41.9974 24.169 42Z" fill="#A0AAB1"/>
</svg>
