<svg width="48" height="48" viewBox="0 0 48 48" fill="none" xmlns="http://www.w3.org/2000/svg">
<path d="M15 12C15 13.6569 13.6569 15 12 15H6C4.34315 15 3 13.6569 3 12V6C3 4.34315 4.34315 3 6 3H12C13.6569 3 15 4.34315 15 6V12Z" fill="#FAFAFA"/>
<path d="M21 15H27C28.6569 15 30 13.6569 30 12V6C30 4.34315 28.6569 3 27 3H21C19.3431 3 18 4.34315 18 6V12C18 13.6569 19.3431 15 21 15Z" fill="#FAFAFA"/>
<path d="M42 15H36C34.3431 15 33 13.6569 33 12V6C33 4.34315 34.3431 3 36 3H42C43.6569 3 45 4.34315 45 6V12C45 13.6569 43.6569 15 42 15Z" fill="#FAFAFA"/>
<path d="M15 27C15 28.6569 13.6569 30 12 30H6C4.34315 30 3 28.6569 3 27V21C3 19.3431 4.34315 18 6 18H12C13.6569 18 15 19.3431 15 21V27Z" fill="#FAFAFA"/>
<path d="M27 30C28.6569 30 30 28.6569 30 27V21C30 19.3431 28.6569 18 27 18H21C19.3431 18 18 19.3431 18 21V27C18 28.6569 19.3431 30 21 30H27Z" fill="#FAFAFA"/>
<path d="M45 27C45 28.6569 43.6569 30 42 30H36C34.3431 30 33 28.6569 33 27V21C33 19.3431 34.3431 18 36 18H42C43.6569 18 45 19.3431 45 21V27Z" fill="#FAFAFA"/>
<path d="M12 45C13.6569 45 15 43.6569 15 42V36C15 34.3431 13.6569 33 12 33H6C4.34315 33 3 34.3431 3 36V42C3 43.6569 4.34315 45 6 45H12Z" fill="#FAFAFA"/>
<path d="M30 42C30 43.6569 28.6569 45 27 45H21C19.3431 45 18 43.6569 18 42V36C18 34.3431 19.3431 33 21 33H27C28.6569 33 30 34.3431 30 36V42Z" fill="#FAFAFA"/>
<path d="M42 45C43.6569 45 45 43.6569 45 42V36C45 34.3431 43.6569 33 42 33H36C34.3431 33 33 34.3431 33 36V42C33 43.6569 34.3431 45 36 45H42Z" fill="#FAFAFA"/>
</svg>
