<svg width="48" height="48" viewBox="0 0 48 48" fill="none" xmlns="http://www.w3.org/2000/svg">
<path d="M33.675 9C34.7671 8.99908 35.8485 9.2162 36.8556 9.63862C37.8627 10.061 38.7753 10.6803 39.54 11.46C41.1157 13.0596 41.9988 15.2147 41.9988 17.46C41.9988 19.7053 41.1157 21.8604 39.54 23.46L24 39.195L8.46003 23.46C6.8844 21.8604 6.00121 19.7053 6.00121 17.46C6.00121 15.2147 6.8844 13.0596 8.46003 11.46C9.22517 10.6808 10.1379 10.0619 11.1449 9.63944C12.1519 9.21696 13.233 8.99936 14.325 8.99936C15.4171 8.99936 16.4982 9.21696 17.5052 9.63944C18.5122 10.0619 19.4249 10.6808 20.19 11.46L24 15.36L27.795 11.49C28.5574 10.701 29.471 10.0738 30.4814 9.64596C31.4917 9.21813 32.5779 8.99843 33.675 9ZM33.675 6C32.1835 5.99874 30.7067 6.29529 29.3312 6.87226C27.9557 7.44923 26.7093 8.29501 25.665 9.36L24 11.04L22.335 9.36C21.2895 8.29693 20.0427 7.45262 18.6675 6.87629C17.2923 6.29996 15.8161 6.00315 14.325 6.00315C12.8339 6.00315 11.3578 6.29996 9.98255 6.87629C8.60734 7.45262 7.3606 8.29693 6.31503 9.36C4.18785 11.5254 2.99597 14.4395 2.99597 17.475C2.99597 20.5105 4.18785 23.4246 6.31503 25.59L24 43.5L41.685 25.59C43.8122 23.4246 45.0041 20.5105 45.0041 17.475C45.0041 14.4395 43.8122 11.5254 41.685 9.36C40.6397 8.29636 39.3931 7.45147 38.0179 6.8746C36.6427 6.29772 35.1663 6.00041 33.675 6Z" fill="#FAFAFA"/>
</svg>
