<svg width="48" height="48" viewBox="0 0 48 48" fill="none" xmlns="http://www.w3.org/2000/svg">
<path d="M40.951 8.18087C42.045 8.63512 43.0385 9.30086 43.8746 10.1399C45.564 11.8234 46.5161 14.1087 46.5217 16.4937C46.5274 18.8787 45.5861 21.1684 43.9046 22.8599L31.9046 34.8599C31.0644 35.7012 30.0657 36.3677 28.9663 36.8209C27.867 37.274 26.6887 37.5048 25.4996 37.4999C23.1147 37.5137 20.8219 36.5804 19.1246 34.9049C18.2856 34.0688 17.6199 33.0752 17.1656 31.9813C16.7114 30.8873 16.4775 29.7144 16.4775 28.5299C16.4775 27.3454 16.7114 26.1725 17.1656 25.0785C17.6199 23.9846 18.2856 22.991 19.1246 22.1549L21.2546 20.0249L23.3696 22.1549L21.2546 24.2849C20.1288 25.4127 19.4971 26.9416 19.4985 28.5352C19.4999 30.1288 20.1343 31.6565 21.2621 32.7824C22.39 33.9082 23.9188 34.5399 25.5124 34.5385C27.106 34.5371 28.6338 33.9027 29.7596 32.7749L41.7596 20.7749C42.3181 20.2164 42.7611 19.5535 43.0633 18.8238C43.3655 18.0942 43.5211 17.3122 43.5211 16.5224C43.5211 15.7326 43.3655 14.9506 43.0633 14.221C42.7611 13.4913 42.3181 12.8283 41.7596 12.2699C41.2012 11.7114 40.5382 11.2685 39.8086 10.9662C39.0789 10.664 38.2969 10.5085 37.5071 10.5085C36.7174 10.5085 35.9353 10.664 35.2057 10.9662C34.4761 11.2685 33.8131 11.7114 33.2546 12.2699L31.1246 10.1399C31.9608 9.30086 32.9543 8.63512 34.0483 8.18087C35.1422 7.72663 36.3151 7.4928 37.4996 7.4928C38.6842 7.4928 39.857 7.72663 40.951 8.18087Z" fill="#FAFAFA"/>
<path d="M4.97687 35.28C5.28014 36.0097 5.7246 36.6724 6.28471 37.2299C6.84222 37.79 7.50489 38.2345 8.23466 38.5378C8.96443 38.841 9.74693 38.9972 10.5372 38.9972C11.3275 38.9972 12.11 38.841 12.8398 38.5378C13.5695 38.2345 14.2322 37.79 14.7897 37.2299L16.9197 39.3599C15.2123 41.0532 12.9044 42.0022 10.4997 41.9999C8.11606 42.0297 5.81794 41.1126 4.10971 39.4499C3.26841 38.6135 2.60078 37.619 2.1452 36.5237C1.68961 35.4283 1.45508 34.2537 1.45508 33.0674C1.45508 31.8811 1.68961 30.7065 2.1452 29.6111C2.60078 28.5158 3.26841 27.5213 4.10971 26.6849L16.1097 14.6849C17.8025 12.9922 20.0983 12.0412 22.4922 12.0412C24.8861 12.0412 27.182 12.9922 28.8747 14.6849C30.5675 16.3777 31.5184 18.6735 31.5184 21.0674C31.5184 23.4613 30.5675 25.7572 28.8747 27.4499L25.6947 30.6299L23.5647 28.4999L26.7447 25.2749C27.3053 24.7137 27.7491 24.047 28.0503 23.3132C28.3515 22.5794 28.5043 21.7931 28.4997 20.9999C28.5152 20.2092 28.3719 19.4234 28.0781 18.689C27.7844 17.9547 27.3463 17.2868 26.7897 16.7249C26.2322 16.1648 25.5695 15.7203 24.8398 15.4171C24.11 15.1138 23.3275 14.9577 22.5372 14.9577C21.7469 14.9577 20.9644 15.1138 20.2347 15.4171C19.5049 15.7203 18.8422 16.1648 18.2847 16.7249L6.28471 28.7249C5.7246 29.2824 5.28014 29.9451 4.97687 30.6749C4.67359 31.4046 4.51747 32.1871 4.51747 32.9774C4.51747 33.7677 4.67359 34.5502 4.97687 35.28Z" fill="#FAFAFA"/>
</svg>
