<svg width="48" height="48" viewBox="0 0 48 48" fill="none" xmlns="http://www.w3.org/2000/svg">
<path d="M9 6H12V42H9V6Z" fill="#FAFAFA"/>
<path fill-rule="evenodd" clip-rule="evenodd" d="M27 6H21C20.2044 6 19.4413 6.31607 18.8787 6.87868C18.3161 7.44129 18 8.20435 18 9V39C18 39.7957 18.3161 40.5587 18.8787 41.1213C19.4413 41.6839 20.2044 42 21 42H27C27.7956 42 28.5587 41.6839 29.1213 41.1213C29.6839 40.5587 30 39.7957 30 39V9C30 8.20435 29.6839 7.44129 29.1213 6.87868C28.5587 6.31607 27.7956 6 27 6ZM27 9V39H21V9H27Z" fill="#FAFAFA"/>
<path d="M39 6H36V42H39V6Z" fill="#FAFAFA"/>
</svg>
