<svg width="48" height="48" viewBox="0 0 48 48" fill="none" xmlns="http://www.w3.org/2000/svg">
<path d="M10.5 28C12.9853 28 15 25.9853 15 23.5C15 21.0147 12.9853 19 10.5 19C8.01472 19 6 21.0147 6 23.5C6 25.9853 8.01472 28 10.5 28Z" fill="#FAFAFA"/>
<path d="M23.5 28C25.9853 28 28 25.9853 28 23.5C28 21.0147 25.9853 19 23.5 19C21.0147 19 19 21.0147 19 23.5C19 25.9853 21.0147 28 23.5 28Z" fill="#FAFAFA"/>
<path d="M41 23.5C41 25.9853 38.9853 28 36.5 28C34.0147 28 32 25.9853 32 23.5C32 21.0147 34.0147 19 36.5 19C38.9853 19 41 21.0147 41 23.5Z" fill="#FAFAFA"/>
</svg>
