<svg width="48" height="48" viewBox="0 0 48 48" fill="none" xmlns="http://www.w3.org/2000/svg">
<path fill-rule="evenodd" clip-rule="evenodd" d="M6 12C7.5 10.5 7 8 7 8H41C41 8 40.5 10.5 42 12C43.5 13.5 46 13 46 13V35C46 35 43.5 34.5 42 36C40.5 37.5 41 40 41 40H7C7 40 7.5 37.5 6 36C4.5 34.5 2 35 2 35V13C2 13 4.5 13.5 6 12ZM8.5 14.5C10 13 10 11 10 11H38C38 11 38 13 39.5 14.5C41 16 43 16 43 16V32C43 32 41 32 39.5 33.5C38 35 38 37 38 37H10C10 37 10 35 8.5 33.5C7 32 5.00002 32 5.00002 32L5 16C5 16 7 16 8.5 14.5ZM24.2295 33H19L24.7705 24L19 15H24.2295L30 24L24.2295 33Z" fill="#FAFAFA"/>
</svg>
