<svg width="104" height="48" viewBox="0 0 104 48" fill="none" xmlns="http://www.w3.org/2000/svg">
<path d="M82.3179 38.1203H72.0552L81.7025 23.8186L72.0552 9.50415H82.3179L91.9651 23.8186L82.3179 38.1203Z" fill="#EBAF00"/>
<path d="M42.4693 23.2689C42.4693 26.5696 42.9425 30.5726 46.1965 34.9522C46.2601 35.0382 46.4373 35.2514 46.4373 35.2514C45.1217 37.5091 43.2491 39.0284 41.0795 39.0284C39.3671 39.0284 37.5857 38.1224 36.1937 36.5437C34.7052 34.8557 33.8862 32.651 33.8862 30.3561V0H42.4725L42.4693 23.2689Z" fill="black"/>
<path fill-rule="evenodd" clip-rule="evenodd" d="M17.262 8.58527C13.1412 8.58527 10.4517 9.78734 8.16217 12.5925V9.50194H0.149811V47.6179C0.149811 47.6179 0.312137 47.6943 0.695143 47.7771L0.730521 47.7847C1.39748 47.9285 4.25806 48.5455 6.40628 46.7076C8.30009 45.0875 8.73509 43.2118 8.73509 41.0517V35.5421C11.0246 38.0025 13.6569 39.0337 17.3204 39.0337C25.2181 39.0337 31.2847 32.6234 31.2847 24.0954C31.2847 14.9956 25.4462 8.58527 17.262 8.58527ZM15.4881 31.1349C11.4808 31.1349 8.27675 27.8162 8.27675 23.7517C8.27675 19.6871 11.5392 16.5976 15.4881 16.5976C19.437 16.5976 22.6994 19.7455 22.6994 23.809C22.6994 27.8724 19.5516 31.1349 15.4881 31.1349Z" fill="black"/>
<path fill-rule="evenodd" clip-rule="evenodd" d="M60.286 8.58527C68.8713 8.58527 75.3962 15.282 75.3962 24.21L75.3951 24.2089C75.3951 25.1256 75.3378 25.5256 75.1659 26.4412H53.7611C54.1049 29.7036 56.6225 31.8786 59.9995 31.8786C62.1745 31.8786 63.4339 31.3068 65.2651 29.5891C65.4465 29.4129 65.6661 29.1891 65.6661 29.1891H74.4222C71.7327 35.4275 66.5244 39.0337 60.4579 39.0337C52.1018 39.0337 45.4061 32.4505 45.4061 23.9235C45.4061 15.3966 51.7007 8.58527 60.286 8.58527ZM60.3433 15.7977C57.0236 15.7977 54.6194 17.6289 53.933 20.6622H66.8109C66.238 17.8008 63.663 15.7977 60.3433 15.7977Z" fill="black"/>
<path d="M94.3014 22.6621L103.169 9.49876H92.9062L89.1695 15.0486L94.3014 22.6621Z" fill="black"/>
<path d="M89.155 32.6017C89.1548 32.6014 89.1547 32.6012 89.1547 32.6011V32.6022L89.155 32.6017Z" fill="black"/>
<path d="M89.155 32.6017C89.1832 32.6444 90.8957 35.1379 90.8957 35.1379C92.5763 37.7733 94.7321 39.0263 97.3028 39.0348C99.8883 38.9885 101.753 36.7635 102.497 35.875C102.52 35.8476 102.542 35.8215 102.563 35.7967C102.563 35.7967 102.56 35.7943 102.555 35.7895C102.443 35.6894 101.174 34.5507 99.6178 32.703C97.3983 30.0676 94.4096 25.1702 94.2961 24.9654L89.155 32.6017Z" fill="black"/>
</svg>
