<svg width="91" height="48" viewBox="0 0 91 48" fill="none" xmlns="http://www.w3.org/2000/svg">
<path fill-rule="evenodd" clip-rule="evenodd" d="M82.9689 45H7.36888C7.36882 44.9819 7.36871 44.9638 7.36854 44.9458C7.36768 44.8918 7.36615 44.8379 7.36342 44.784C7.35801 44.6775 7.34858 44.5712 7.33511 44.4654C7.29674 44.1639 7.22543 43.8667 7.12263 43.5807C7.01347 43.277 6.86893 42.9862 6.69311 42.7157C6.51438 42.4407 6.30343 42.1867 6.06605 41.9603C5.84676 41.7513 5.60497 41.5658 5.34607 41.4084C5.09176 41.2538 4.82101 41.1264 4.53972 41.0292C4.25196 40.9297 3.95336 40.862 3.65089 40.8274C3.54466 40.8153 3.43798 40.8072 3.33114 40.8031C3.27707 40.801 3.22299 40.8002 3.16888 40.8V7.2C3.18697 7.19993 3.20505 7.19985 3.22313 7.19963C3.24116 7.1994 3.25919 7.19903 3.27722 7.19865C3.331 7.19707 3.38475 7.1949 3.43845 7.19145C3.53584 7.1853 3.63302 7.1757 3.72975 7.1628C4.03074 7.12253 4.32724 7.04948 4.61238 6.94493C4.91523 6.834 5.20502 6.68775 5.4744 6.51038C5.74832 6.33 6.00102 6.11752 6.22592 5.8788C6.43372 5.6583 6.61774 5.41538 6.77358 5.15543C6.92229 4.90747 7.04527 4.64408 7.13973 4.37078C7.23917 4.08308 7.30685 3.78443 7.34147 3.48195C7.35364 3.37575 7.36174 3.2691 7.3658 3.16223C7.36786 3.10815 7.36871 3.05408 7.36888 3H82.9689C82.9689 5.31802 84.8506 7.19993 87.1689 7.2V40.8C84.8506 40.8 82.9689 42.6819 82.9689 45ZM36.7689 6.15H9.81019L9.79189 6.18825L9.77238 6.22837C9.74607 6.2817 9.71944 6.33487 9.692 6.3876C9.63729 6.49282 9.58002 6.59662 9.52028 6.69907C9.34214 7.0044 9.14194 7.2969 8.92182 7.5735C8.4558 8.15917 7.90042 8.67307 7.28031 9.09217C7.07215 9.2328 6.85678 9.36285 6.63532 9.4815C6.53112 9.5373 6.4255 9.59025 6.31888 9.64132V38.3587L6.35717 38.377L6.39736 38.3966C6.45066 38.4229 6.50378 38.4495 6.55651 38.4769C6.6617 38.5316 6.76558 38.5889 6.868 38.6486C7.17334 38.8268 7.4658 39.027 7.74241 39.2471C8.32809 39.7131 8.842 40.2685 9.2611 40.8886C9.40177 41.0968 9.53177 41.3121 9.6504 41.5336C9.70621 41.6378 9.75918 41.7434 9.81018 41.85H36.7689V6.15ZM69.6791 32.2767C69.3451 31.8439 68.7276 31.4121 67.8268 30.9815C67.1457 30.6563 66.7139 30.431 66.5315 30.3058C66.3491 30.1805 66.2162 30.0509 66.1327 29.9169C66.0492 29.7828 66.0075 29.6258 66.0075 29.4455C66.0075 29.1555 66.1107 28.9204 66.3173 28.7402C66.5238 28.5601 66.8205 28.47 67.2072 28.47C67.5324 28.47 67.863 28.5117 68.1992 28.5953C68.5354 28.6787 68.9606 28.826 69.4747 29.0369L70.1339 27.4483C69.6373 27.2329 69.1616 27.0659 68.7068 26.9473C68.2519 26.8286 67.774 26.7693 67.2731 26.7693C66.2535 26.7693 65.4549 27.0132 64.8769 27.501C64.299 27.9888 64.0102 28.6589 64.0102 29.5115C64.0102 29.9641 64.098 30.3596 64.2738 30.698C64.4496 31.0364 64.6847 31.333 64.9791 31.5879C65.2736 31.8428 65.7152 32.1086 66.3041 32.3855C66.9325 32.6843 67.3488 32.9018 67.5532 33.0381C67.7576 33.1743 67.9125 33.3161 68.0179 33.4633C68.1234 33.6105 68.1762 33.7786 68.1762 33.9675C68.1762 34.3059 68.0564 34.5608 67.8169 34.7322C67.5774 34.9036 67.2335 34.9892 66.7853 34.9892C66.4117 34.9892 65.9997 34.9299 65.5493 34.8112C65.0988 34.6926 64.5485 34.4883 63.8981 34.1983V36.0967C64.6891 36.4834 65.5988 36.6767 66.627 36.6767C67.7433 36.6767 68.6145 36.4263 69.2407 35.9253C69.867 35.4243 70.18 34.7388 70.18 33.8687C70.18 33.2402 70.013 32.7096 69.6791 32.2767ZM78.1955 32.2767C77.8613 31.8439 77.2439 31.4121 76.343 30.9815C75.6619 30.6563 75.2301 30.431 75.0478 30.3058C74.8654 30.1805 74.7325 30.0509 74.6489 29.9169C74.5655 29.7828 74.5237 29.6258 74.5237 29.4455C74.5237 29.1555 74.627 28.9204 74.8335 28.7402C75.0401 28.5601 75.3367 28.47 75.7234 28.47C76.0486 28.47 76.3793 28.5117 76.7155 28.5953C77.0516 28.6787 77.4768 28.826 77.991 29.0369L78.6499 27.4483C78.1536 27.2329 77.6779 27.0659 77.2231 26.9473C76.7682 26.8286 76.2903 26.7693 75.7893 26.7693C74.7698 26.7693 73.9711 27.0132 73.3932 27.501C72.8153 27.9888 72.5264 28.6589 72.5264 29.5115C72.5264 29.9641 72.6143 30.3596 72.7901 30.698C72.9659 31.0364 73.201 31.333 73.4954 31.5879C73.7898 31.8428 74.2315 32.1086 74.8203 32.3855C75.4487 32.6843 75.8651 32.9018 76.0695 33.0381C76.2738 33.1743 76.4288 33.3161 76.5342 33.4633C76.6397 33.6105 76.6924 33.7786 76.6924 33.9675C76.6924 34.3059 76.5727 34.5608 76.3331 34.7322C76.0937 34.9036 75.7498 34.9892 75.3015 34.9892C74.928 34.9892 74.5161 34.9299 74.0656 34.8112C73.6152 34.6926 73.0647 34.4883 72.4143 34.1983V36.0967C73.2054 36.4834 74.115 36.6767 75.1433 36.6767C76.2596 36.6767 77.1308 36.4263 77.757 35.9253C78.3829 35.4243 78.6965 34.7388 78.6965 33.8687C78.6965 33.2402 78.5292 32.7096 78.1955 32.2767ZM20.9776 36.6H13.6689L21.7337 24L13.6689 11.4H20.9776L29.0425 24L20.9776 36.6ZM48.2913 26.9077H45.2129V36.5449H47.2563V33.1171H48.133C49.3284 33.1171 50.2501 32.8425 50.8983 32.2932C51.5465 31.7439 51.8706 30.9507 51.8706 29.9136C51.8706 28.916 51.5663 28.1656 50.9577 27.6625C50.349 27.1593 49.4602 26.9077 48.2913 26.9077ZM58.7844 26.8681H56.2861L52.8848 36.545H55.0864L55.7851 34.251H59.2985L59.9973 36.545H62.1989L58.7844 26.8681ZM58.8104 32.5371C58.1645 30.4585 57.8008 29.2829 57.7195 29.0105C57.6382 28.738 57.58 28.5227 57.5448 28.3645C57.3998 28.927 56.9846 30.3178 56.299 32.5371H58.8104ZM47.9286 31.4429H47.2562V28.582H48.1857C48.7439 28.582 49.1536 28.6963 49.4151 28.9248C49.6766 29.1533 49.8073 29.5071 49.8073 29.9861C49.8073 30.4607 49.6513 30.8222 49.3392 31.0704C49.0272 31.3187 48.557 31.4429 47.9286 31.4429ZM48.2913 11.6077H45.2129V21.245H47.2563V17.8171H48.133C49.3284 17.8171 50.2501 17.5425 50.8983 16.9932C51.5465 16.4439 51.8706 15.6507 51.8706 14.6136C51.8706 13.616 51.5663 12.8656 50.9577 12.3625C50.349 11.8593 49.4602 11.6077 48.2913 11.6077ZM56.2737 11.6077H54.2303V21.245H60.1827V19.5575H56.2737V11.6077ZM67.9468 11.6077H62.3965V21.245H67.9468V19.5575H64.44V17.0723H67.7029V15.398H64.44V13.282H67.9468V11.6077ZM72.1479 11.6077H69.8935L72.8861 16.2747L69.6891 21.245H71.8776L74.1188 17.5996L76.3601 21.245H78.6935L75.4372 16.3867L78.4625 11.6077H76.2611L74.2243 15.075L72.1479 11.6077ZM47.9286 16.1429H47.2562V13.2821H48.1857C48.7439 13.2821 49.1536 13.3963 49.4151 13.6248C49.6766 13.8533 49.8073 14.2071 49.8073 14.6861C49.8073 15.1607 49.6513 15.5222 49.3392 15.7704C49.0272 16.0187 48.557 16.1429 47.9286 16.1429Z" fill="#E2A200"/>
</svg>
