<svg width="331" height="48" viewBox="0 0 331 48" fill="none" xmlns="http://www.w3.org/2000/svg">
<path d="M285.117 7.7178C285.117 9.76787 286.688 11.4341 288.622 11.4341C290.557 11.4341 292.125 9.76787 292.125 7.7178C292.125 5.66773 290.557 4 288.622 4C286.688 4 285.117 5.66773 285.117 7.7178Z" fill="white"/>
<path d="M251.453 37.8831C250.771 37.8831 250.223 37.3342 250.223 36.6558V19.0784H246.709C246.029 19.0784 245.477 18.528 245.477 17.8481V14.8563C245.477 14.1764 246.029 13.6245 246.709 13.6245H250.223V12.9327C250.223 7.63791 253.365 4.47503 258.633 4.47503H265.515C266.195 4.47503 266.747 5.02994 266.747 5.70834V8.70162C266.747 9.38151 266.195 9.93345 265.515 9.93345H258.934C257.178 9.93345 256.36 10.6401 256.36 12.1635V13.6245H265.515C266.195 13.6245 266.747 14.1764 266.747 14.8563V17.8481C266.747 18.528 266.195 19.0784 265.515 19.0784H256.36V36.6558C256.36 37.3342 255.809 37.8831 255.128 37.8831H251.453Z" fill="white"/>
<path d="M273.467 37.8831C272.784 37.8831 272.235 37.3342 272.235 36.6558V5.70834C272.235 5.02994 272.784 4.47503 273.467 4.47503H277.139C277.822 4.47503 278.374 5.02994 278.374 5.70834V36.6558C278.374 37.3342 277.822 37.8831 277.139 37.8831H273.467Z" fill="white"/>
<path d="M285.552 36.6558C285.552 37.3342 286.104 37.8831 286.786 37.8831H290.46C291.136 37.8831 291.691 37.3342 291.691 36.6558V14.8563C291.691 14.1764 291.136 13.6245 290.46 13.6245H286.786C286.104 13.6245 285.552 14.1764 285.552 14.8563V36.6558Z" fill="white"/>
<path d="M320.346 37.8831C320.017 37.8831 319.697 37.7537 319.468 37.5157L312.434 28.9643L305.46 37.5157C305.229 37.7537 304.909 37.8831 304.579 37.8831H299.487C298.984 37.8831 298.535 37.5796 298.347 37.1199C298.158 36.6558 298.27 36.1217 298.627 35.7735L308.071 25.0248L298.621 15.734C298.265 15.3815 298.157 14.8533 298.349 14.3921C298.535 13.9265 298.985 13.6245 299.487 13.6245H304.527C304.857 13.6245 305.173 13.7584 305.405 13.9904L312.434 21.1002L319.471 13.9904C319.7 13.7584 320.013 13.6245 320.343 13.6245H325.389C325.888 13.6245 326.338 13.9265 326.524 14.3921C326.716 14.8533 326.606 15.3815 326.252 15.734L316.804 25.0248L326.242 35.7051C326.599 36.0532 326.709 36.5858 326.52 37.05C326.331 37.5112 325.883 37.8147 325.382 37.8147L320.346 37.8831Z" fill="white"/>
<path fill-rule="evenodd" clip-rule="evenodd" d="M157.818 38.218C154.237 38.2135 144.739 38.2017 144.751 28.106L144.756 23.6548C144.766 13.5533 154.268 13.5651 157.847 13.5696L162.736 13.5755C166.317 13.5785 175.82 13.5874 175.809 23.6845L175.803 28.1417C175.794 38.2374 166.289 38.2299 162.711 38.224L157.818 38.218ZM156.804 20.0843C152.965 20.0828 151.913 20.8936 151.908 23.8601L151.905 27.9126C151.902 30.8836 152.953 31.6974 156.793 31.7018L163.754 31.7063C167.595 31.7108 168.647 30.897 168.65 27.9334L168.656 23.8779C168.659 20.91 167.607 20.0977 163.766 20.0917L156.804 20.0843Z" fill="white"/>
<path d="M211.753 35.9521C211.753 36.9712 212.569 37.8028 213.588 37.8192L217.04 37.8742C217.528 37.8742 217.998 37.6808 218.348 37.3342C218.705 36.986 218.904 36.504 218.904 36.0071V23.8034C218.904 20.648 219.944 20.1436 223.282 20.1436H230.428C234.207 20.1436 234.207 21.1597 234.207 22.4481L234.199 35.9506C234.199 36.4475 234.393 36.9206 234.744 37.2717C235.093 37.6213 235.569 37.8192 236.063 37.8192H239.246C240.277 37.8192 241.113 36.9845 241.113 35.9536L241.125 22.3707C241.125 18.3807 239.262 13.6245 230.389 13.6245H223.799C220.503 13.6245 211.753 13.6245 211.753 23.6844V35.9521Z" fill="white"/>
<path fill-rule="evenodd" clip-rule="evenodd" d="M5.87987 44C4.84739 44 4.0113 43.1639 4.0113 42.1299V28.2332C4.0113 28.2332 4.00684 28.1826 4.00684 28.1216V23.6689C4.00684 13.5688 13.5103 13.5688 17.0868 13.5688H21.9769C25.5549 13.5688 35.0584 13.5688 35.0584 23.6689V28.1216C35.0584 38.2217 25.5549 38.2217 21.9769 38.2217H17.0868C14.7124 38.2217 12.7472 38.012 11.1062 37.5805V42.1299C11.1062 43.1639 10.2701 44 9.23912 44H5.87987ZM16.0529 20.088C12.2116 20.088 11.1612 20.9003 11.1612 23.8698V27.9223C11.1612 30.8903 12.2116 31.7041 16.0529 31.7041H23.0109C26.8522 31.7041 27.9055 30.8903 27.9055 27.9223V23.8698C27.9055 20.9003 26.8522 20.088 23.0109 20.088H16.0529Z" fill="white"/>
<path fill-rule="evenodd" clip-rule="evenodd" d="M73.6792 42.1299C73.6792 43.1639 74.5153 44 75.5463 44H78.907C79.938 44 80.7741 43.1639 80.7741 42.1299V37.5805C82.4166 38.012 84.3803 38.2217 86.7547 38.2217H91.6463C95.2228 38.2217 104.726 38.2217 104.726 28.1216V23.6689C104.726 13.5688 95.2228 13.5688 91.6463 13.5688H86.7547C83.1783 13.5688 73.6748 13.5688 73.6748 23.6689V28.1216C73.6748 28.1826 73.6792 28.2332 73.6792 28.2332V42.1299ZM80.8277 23.8698C80.8277 20.9003 81.8795 20.088 85.7208 20.088H92.6788C96.5201 20.088 97.5719 20.9003 97.5719 23.8698V27.9223C97.5719 30.8903 96.5201 31.7041 92.6788 31.7041H85.7208C81.8795 31.7041 80.8277 30.8903 80.8277 27.9223V23.8698Z" fill="white"/>
<path d="M182.291 37.8192C181.269 37.8028 180.452 36.9712 180.452 35.9521V23.6844C180.452 13.6245 189.203 13.6245 192.498 13.6245H198.225C206.002 13.6245 208.273 17.372 208.808 20.5141C208.902 21.0541 208.749 21.609 208.395 22.0301C208.04 22.4496 207.518 22.6951 206.966 22.6951H203.684C202.874 22.6951 202.155 22.1669 201.908 21.3933C201.768 20.9558 201.509 20.1436 198.263 20.1436H191.982C188.644 20.1436 187.604 20.648 187.604 23.8034V36.0071C187.604 36.504 187.406 36.986 187.047 37.3342C186.698 37.6808 186.228 37.8742 185.74 37.8742L182.291 37.8192Z" fill="white"/>
<path d="M109.371 28.1224C109.371 38.221 118.876 38.221 122.453 38.221H127.344C132.028 38.221 138.438 37.498 140.049 31.2302C140.191 30.6708 140.069 30.0743 139.715 29.6235C139.362 29.1668 138.816 28.8975 138.239 28.8975H134.655C133.901 28.8975 133.224 29.3497 132.932 30.0415C132.513 31.0398 131.577 31.7033 128.377 31.7033H121.419C117.579 31.7033 116.526 30.891 116.526 27.9215V23.869C116.526 20.901 117.579 20.0887 121.419 20.0887H128.377C131.678 20.0887 132.489 20.8311 132.873 21.633C133.184 22.2801 133.838 22.6952 134.557 22.6952H138.185C138.771 22.6952 139.323 22.42 139.674 21.9513C140.028 21.4857 140.142 20.8787 139.981 20.3164C138.263 14.2718 131.946 13.5696 127.344 13.5696H122.453C118.876 13.5696 109.371 13.5696 109.371 23.6697V28.1224Z" fill="white"/>
<path d="M53.0454 12.3421C49.4288 11.0478 48.1672 11.4599 47.166 14.2508L45.8018 18.0713C44.8005 20.8652 45.5191 21.9855 49.1357 23.2768L55.6876 25.6214C59.3057 26.9143 60.5688 26.5066 61.5686 23.7082L62.9343 19.8908C63.9325 17.0983 63.2155 15.9781 59.5988 14.6838L53.0454 12.3421ZM47.9143 29.7632C44.5461 28.5597 35.5975 25.3596 38.9985 15.8501L40.4951 11.6563C43.896 2.14829 52.8446 5.34539 56.2128 6.55341L60.8202 8.20031C64.1869 9.40387 73.1355 12.6039 69.7361 22.1119L68.2365 26.3058C64.8371 35.8152 55.8885 32.6137 52.5188 31.4101L47.9143 29.7632Z" fill="#FF3300"/>
</svg>
