<svg width="48" height="48" viewBox="0 0 48 48" fill="none" xmlns="http://www.w3.org/2000/svg">
<path opacity="0.2" fill-rule="evenodd" clip-rule="evenodd" d="M24 38C31.732 38 38 31.732 38 24C38 16.268 31.732 10 24 10C16.268 10 10 16.268 10 24C10 31.732 16.268 38 24 38ZM24 45C35.598 45 45 35.598 45 24C45 12.402 35.598 3 24 3C12.402 3 3 12.402 3 24C3 35.598 12.402 45 24 45Z" fill="#FAFAFA"/>
<path d="M24.0001 10C31.7321 10 38.0001 16.268 38.0001 24C38.0001 31.732 31.7321 38 24.0001 38C20.1341 38 16.6341 36.433 14.1006 33.8995L9.15088 38.8492C12.9511 42.6495 18.2011 45 24.0001 45C35.5981 45 45.0001 35.598 45.0001 24C45.0001 12.402 35.5981 3 24.0001 3V10Z" fill="#FAFAFA"/>
</svg>
