<svg width="48" height="48" viewBox="0 0 48 48" fill="none" xmlns="http://www.w3.org/2000/svg">
<path fill-rule="evenodd" clip-rule="evenodd" d="M12.333 6.53914C15.7865 4.23163 19.8466 3 24 3C29.5696 3 34.911 5.21249 38.8493 9.15076C42.7875 13.089 45 18.4305 45 24C45 28.1534 43.7684 32.2135 41.4609 35.667C39.1534 39.1204 35.8736 41.812 32.0364 43.4015C28.1991 44.9909 23.9767 45.4068 19.9031 44.5965C15.8295 43.7862 12.0877 41.7861 9.15077 38.8492C6.21386 35.9123 4.21381 32.1705 3.40352 28.0969C2.59323 24.0233 3.0091 19.8009 4.59854 15.9636C6.18798 12.1264 8.8796 8.84665 12.333 6.53914ZM15.5311 16.7206L15.3508 17.2073L19.1241 18.4474L19.3018 18.0194C20.013 16.3059 21.7539 15.3069 23.7961 15.3069C25.0025 15.3069 26.1876 15.702 27.0613 16.3784C27.9292 17.0504 28.4746 17.984 28.4746 19.0888C28.4746 20.5328 27.4563 21.8108 25.9637 22.4453C23.3942 23.5371 21.7834 25.8299 21.7834 28.4982V30.5H25.8088V28.4982C25.8088 27.3624 26.4524 26.397 27.6062 25.9092L27.6074 25.9087C30.4604 24.6939 32.5 22.135 32.5 19.0888C32.5 14.6184 28.2563 11.5 23.7961 11.5C20.2609 11.5 16.7426 13.4508 15.5311 16.7206ZM26.5 34.9996C26.5 33.6199 25.3802 32.5 24 32.5C22.6208 32.5 21.5 33.6198 21.5 34.9996C21.5 36.3801 22.6207 37.5 24 37.5C25.3803 37.5 26.5 36.3799 26.5 34.9996Z" fill="#FAFAFA"/>
</svg>
