<svg width="83" height="48" viewBox="0 0 83 48" fill="none" xmlns="http://www.w3.org/2000/svg">
<path d="M45.0509 22.2769H69.6672C71.3909 22.2769 73.0441 21.5919 74.2633 20.3726C75.4825 19.1534 76.168 17.4995 76.1689 15.7747C76.1689 14.0492 75.4839 12.3944 74.2646 11.1743C73.0453 9.95422 71.3915 9.26878 69.6672 9.26878H45.0509C43.3265 9.26878 41.6727 9.95422 40.4534 11.1743C39.2341 12.3944 38.5491 14.0492 38.5491 15.7747C38.5501 17.4995 39.2355 19.1534 40.4547 20.3726C41.6739 21.5919 43.3271 22.2769 45.0509 22.2769ZM12.6707 38.8454H40.9666C42.6903 38.8454 44.3435 38.1604 45.5627 36.9411C46.7819 35.7218 47.4674 34.068 47.4684 32.3432C47.4684 30.6177 46.7833 28.9629 45.564 27.7428C44.3447 26.5227 42.6909 25.8373 40.9666 25.8373H12.6707C10.9464 25.8373 9.2926 26.5227 8.07327 27.7428C6.85395 28.9629 6.16895 30.6177 6.16895 32.3432H6.16895C6.16992 34.068 6.85536 35.7218 8.07458 36.9411C9.29379 38.1604 10.947 38.8454 12.6707 38.8454ZM9.99937 22.0412H12.8694V11.5479H16.5858V9H6.28301V11.5405H9.99937V22.0412ZM20.3389 22.0412H23.209V12.0376H23.2458L26.5574 22.0339H28.7651L32.1871 12.0376H32.2239V22.0339H35.094V9H30.7337L27.7165 17.5052H27.6797L24.6808 9H20.3389V22.0412ZM62.2565 29.4971C61.8727 28.6961 61.3023 27.9991 60.5934 27.4647C59.8578 26.9264 59.0221 26.5409 58.1354 26.3306C57.1642 26.0878 56.1671 25.9642 55.166 25.9624H50.8609V38.9963H55.5524C56.4948 39.0009 57.4321 38.858 58.3304 38.5729C59.1786 38.3146 59.971 37.9001 60.6669 37.3505C61.3439 36.8007 61.8927 36.1096 62.2749 35.3255C62.6881 34.4542 62.8935 33.4988 62.8747 32.5346C62.9047 31.488 62.6931 30.4486 62.2565 29.4971ZM59.5226 34.2577C59.3074 34.749 58.9736 35.1792 58.5512 35.5096C58.1122 35.8324 57.611 36.0606 57.0794 36.1797C56.4761 36.3187 55.8586 36.3867 55.2396 36.3822H53.7494V28.6502H55.442C56.0227 28.6473 56.6011 28.7254 57.1603 28.8822C57.6748 29.021 58.159 29.2545 58.588 29.5707C58.9814 29.8805 59.3007 30.2742 59.5226 30.7231C59.7754 31.2408 59.9015 31.8113 59.8906 32.3873C59.9067 33.0303 59.7811 33.6689 59.5226 34.2577ZM75.9445 34.2099C75.8145 33.8539 75.6171 33.5263 75.3631 33.2452C75.1104 32.9656 74.8086 32.7348 74.4727 32.5641C74.1063 32.379 73.7124 32.2547 73.3062 32.1959V32.1591C73.9374 31.9777 74.5023 31.6171 74.9326 31.1208C75.3567 30.6034 75.5767 29.9485 75.5508 29.2798C75.5784 28.6802 75.4314 28.0854 75.1276 27.5677C74.8505 27.1457 74.4706 26.8011 74.0238 26.5663C73.543 26.3179 73.0224 26.1559 72.4857 26.0876C71.9226 26.0071 71.3545 25.9665 70.7857 25.9661H65.9287V39H71.2641C71.8479 39.0003 72.4301 38.9386 73.0008 38.8159C73.5565 38.7046 74.0891 38.4991 74.5757 38.2084C75.0362 37.9335 75.4266 37.5554 75.7164 37.1038C76.0266 36.5841 76.18 35.9857 76.1579 35.3807C76.1585 34.9817 76.09 34.5855 75.9555 34.2099H75.9445ZM68.7988 28.4109H70.7489C70.9774 28.4118 71.2053 28.434 71.4297 28.4772C71.6473 28.5163 71.858 28.587 72.0552 28.687C72.237 28.7863 72.3913 28.9293 72.5041 29.1031C72.6284 29.3039 72.6899 29.5372 72.6807 29.7732C72.6861 30.0041 72.6316 30.2324 72.5225 30.4359C72.4232 30.6147 72.2818 30.7664 72.1104 30.8778C71.932 30.9909 71.7353 31.0718 71.529 31.1171C71.3156 31.1674 71.097 31.1921 70.8777 31.1907H68.7988V28.4109ZM73.1112 35.7747C73.0005 35.9668 72.8469 36.1306 72.6623 36.2533C72.4753 36.3792 72.2652 36.4668 72.0442 36.511C71.8244 36.5606 71.5998 36.5853 71.3745 36.5847H68.7988V33.6392H70.9697C71.216 33.6415 71.4618 33.66 71.7056 33.6944C71.9646 33.73 72.218 33.798 72.4599 33.8969C72.6856 33.9914 72.8841 34.1408 73.0376 34.3314C73.1978 34.5426 73.2797 34.8028 73.2694 35.0677C73.2812 35.3133 73.2266 35.5576 73.1112 35.7747Z" fill="url(#paint0_linear_67_335)"/>
<defs>
<linearGradient id="paint0_linear_67_335" x1="6.16895" y1="24.0074" x2="76.1689" y2="24.0074" gradientUnits="userSpaceOnUse">
<stop stop-color="#90CEA1"/>
<stop offset="0.56" stop-color="#3CBEC9"/>
<stop offset="1" stop-color="#00B3E5"/>
</linearGradient>
</defs>
</svg>
