<svg width="53" height="48" viewBox="0 0 53 48" fill="none" xmlns="http://www.w3.org/2000/svg">
<path d="M11.1465 16.4071L30.8836 13.825C30.1028 14.7456 29.5581 15.9951 29.1472 17.2756L8.75202 19.2882C9.35846 18.1109 10.2682 16.986 11.1465 16.4071Z" fill="white"/>
<path d="M28.5717 19.6551L7.90129 21.2908C7.25689 23.2399 7.0573 24.373 6.89807 25.9952L27.8563 25.7423C27.9078 23.9503 28.1504 21.631 28.5717 19.6551Z" fill="white"/>
<path d="M6.89807 28.2058L27.8563 28.4587C27.9078 30.2507 28.1504 32.57 28.5717 34.5459L7.90129 32.9102C7.25689 30.9611 7.0573 29.828 6.89807 28.2058Z" fill="white"/>
<path d="M11.1465 37.794C10.2682 37.2152 9.35846 36.0902 8.75202 34.9129L29.1472 36.9256C29.5581 38.206 30.1028 39.4557 30.8836 40.3761L11.1465 37.794Z" fill="white"/>
<path d="M31.0174 34.6857C31.2878 34.0153 32.2463 33.6069 32.9345 33.6547C33.6702 33.7057 34.4516 34.4797 34.5882 35.241C34.6135 35.2133 34.6401 35.1872 34.6671 35.1615C34.9033 34.9356 35.1993 34.7857 35.5231 34.7444C35.4736 34.5248 35.4617 34.2897 35.4956 34.0485C35.6152 33.1998 36.2957 32.5634 37.0747 32.5697C37.5774 32.5738 38.0185 32.8312 38.3059 33.2267C38.3315 33.1946 38.3599 33.1651 38.3875 33.1351C38.7161 31.4216 38.9244 29.4856 38.9719 27.4311C39.1347 20.3665 37.3439 14.5951 34.9722 14.5404C32.6003 14.4856 30.5456 20.1681 30.3827 27.2327C30.3827 27.2327 30.2571 29.8094 31.0174 34.6857Z" fill="#00641E"/>
<path d="M47.0756 42.4113C47.2158 42.1772 47.2941 41.8964 47.2887 41.5981C47.3342 40.6343 46.6731 39.7605 45.7533 39.8573C45.7799 39.747 45.7973 39.6324 45.804 39.5142C45.8591 38.5487 45.1939 37.7166 44.318 37.6557C44.2988 37.6545 44.2799 37.6539 44.2609 37.6533C44.352 37.4138 44.3971 37.1462 44.3811 36.8628C44.3358 36.0595 43.7823 35.3827 43.0623 35.2495C42.8022 35.2014 42.5499 35.2253 42.319 35.3053C42.1008 34.7673 41.6426 34.3682 41.0852 34.2839C41.0411 33.4104 40.4107 32.6913 39.5989 32.635C39.0885 32.5996 38.6196 32.8342 38.3059 33.227C38.0185 32.8315 37.5775 32.5742 37.0747 32.5701C36.2957 32.5637 35.6153 33.2001 35.4957 34.0489C35.4618 34.29 35.4736 34.525 35.5232 34.7448C35.1993 34.7859 34.9034 34.936 34.6672 35.1617C34.6402 35.1874 34.6136 35.2136 34.5882 35.2412C34.4517 34.48 33.6703 33.7061 32.9346 33.6549C32.2464 33.6071 31.2754 34.0256 31.0175 34.6859C31.1306 35.8374 31.8497 38.9762 34.4508 41.7919L34.4739 41.7936C34.7246 42.0207 35.0521 42.1458 35.4012 42.1147C35.6176 42.0953 35.8169 42.0178 35.9885 41.8982L36.0304 41.9011C36.2593 42.0602 36.5343 42.1434 36.825 42.1175C36.9361 42.1076 37.042 42.0809 37.1427 42.0427C37.3918 42.5582 37.9474 42.8914 38.5675 42.8367C39.0477 42.7944 39.4559 42.5285 39.6959 42.1543L39.7736 42.1598C40.0133 42.3975 40.3319 42.536 40.6755 42.5257C40.9596 42.9558 41.4814 43.2205 42.0572 43.1699C42.2741 43.1508 42.4765 43.088 42.6571 42.9929C42.9583 43.3638 43.4526 43.5843 43.9949 43.5365C44.5311 43.4895 44.9841 43.192 45.2305 42.7805C45.4725 42.9751 45.7758 43.0795 46.0979 43.0508C46.4103 43.0228 46.688 42.8752 46.8966 42.6518L46.9314 42.6542C46.9788 42.5854 47.0193 42.515 47.057 42.4439C47.0579 42.4426 47.0586 42.4411 47.0594 42.4397C47.0645 42.4303 47.0708 42.421 47.0756 42.4113Z" fill="#FFD700"/>
<path fill-rule="evenodd" clip-rule="evenodd" d="M34.3984 12.0576C35.2025 11.9646 36.1412 12.68 37.4487 14.2038C39.7559 17.0795 41.2659 24.7821 39.8256 32.6704C39.7517 32.6534 39.6764 32.6403 39.599 32.6348C39.1782 32.605 38.7252 32.7622 38.3876 33.1351C38.7162 31.4216 38.9245 29.4856 38.972 27.4311C39.1348 20.3666 37.344 14.5951 34.9723 14.5403C32.6004 14.4856 30.5457 20.1682 30.3828 27.2327C30.3828 27.2327 30.2572 29.8095 31.0175 34.6857C31.1306 35.8371 31.8498 38.9761 34.4508 41.7917L34.4739 41.7933C34.6151 41.9213 34.7813 42.0152 34.9613 42.0688C34.7763 42.1163 34.5886 42.1418 34.3984 42.143C34.2911 42.1356 11.5219 38.9527 11.5219 38.9527C7.91552 38.5854 5.03328 33.3441 4.99756 27.1004C5.03328 20.8565 7.91552 15.6152 11.5219 15.2481C11.5219 15.2481 34.2485 12.0767 34.3984 12.0576ZM29.1472 17.2754L8.75202 19.288C9.35846 18.1107 10.2682 16.9858 11.1465 16.4069L30.8836 13.8248C30.1028 14.7454 29.5581 15.9949 29.1472 17.2754ZM30.8836 40.3759L11.1465 37.7937C10.2682 37.215 9.35846 36.0899 8.75202 34.9128L29.1472 36.9254C29.5581 38.2057 30.1028 39.4554 30.8836 40.3759ZM6.89807 28.2056C7.05729 29.8279 7.25689 30.9609 7.90129 32.91L28.5717 34.5457C28.1504 32.5698 27.9078 30.2505 27.8563 28.4585L6.89807 28.2056ZM7.90129 21.2906L28.5717 19.6549C28.1504 21.6308 27.9078 23.9501 27.8563 25.7422L6.89807 25.995C7.05729 24.3728 7.25689 23.2397 7.90129 21.2906Z" fill="#04A53C"/>
</svg>
