<svg width="43" height="48" viewBox="0 0 43 48" fill="none" xmlns="http://www.w3.org/2000/svg">
<path d="M10.4382 38.2524L7.85791 18.5139C8.77776 19.2949 10.0265 19.8396 11.3062 20.2506L13.3174 40.6469C12.1409 40.0404 11.0168 39.1308 10.4382 38.2524Z" fill="white"/>
<path d="M31.8112 38.2524C31.2328 39.1308 30.1087 40.0404 28.9321 40.6469L30.9434 20.2506C32.2231 19.8396 33.4718 19.2949 34.3917 18.5139L31.8112 38.2524Z" fill="white"/>
<path d="M26.9306 41.4977C24.9828 42.1421 23.8506 42.3419 22.2294 42.501L22.4821 21.5415C24.273 21.4901 26.5906 21.2475 28.5653 20.826L26.9306 41.4977Z" fill="white"/>
<path d="M13.6843 20.826L15.319 41.4977C17.2668 42.1421 18.399 42.3419 20.0202 42.501L19.7675 21.5415C17.9766 21.4901 15.659 21.2475 13.6843 20.826Z" fill="white"/>
<path d="M7.36075 13.4953C7.47708 15.9662 13.5983 17.9247 21.1246 17.8818C27.6978 17.8443 33.181 16.2922 34.5242 14.253C34.2181 13.913 33.7954 13.6797 33.3193 13.6165C33.3244 13.5565 33.3277 13.496 33.3274 13.4346C33.3218 12.4575 32.6049 11.6528 31.6708 11.5027C31.6954 11.3763 31.7083 11.2456 31.7076 11.1119C31.7014 10.0236 30.814 9.14657 29.7256 9.15273C29.701 9.15288 29.677 9.15588 29.6525 9.15693C29.7221 8.95342 29.7612 8.73595 29.76 8.50888C29.7537 7.42066 28.8664 6.54359 27.778 6.54974C27.5282 6.55124 27.2906 6.60092 27.0711 6.68692C26.7598 6.10101 26.1621 5.69264 25.4651 5.64551C25.3437 4.66835 24.5088 3.9145 23.4996 3.9202C22.8645 3.9238 22.3028 4.22876 21.9451 4.69716C21.5823 4.30245 21.0623 4.05482 20.484 4.05812C19.3955 4.06427 18.5183 4.95155 18.5245 6.03962C18.5257 6.24748 18.5595 6.44724 18.6201 6.63499C18.1759 6.71738 17.7854 6.94821 17.4998 7.27433C17.2732 6.43028 16.5024 5.81 15.5872 5.8151C14.7322 5.82006 14.0096 6.36965 13.7412 7.1322C13.0148 7.42591 12.5036 8.13834 12.5084 8.96933C12.5094 9.15393 12.5376 9.33162 12.5861 9.50091C12.3411 9.39375 12.0711 9.33372 11.7865 9.33537C10.9283 9.34033 10.2035 9.89382 9.93733 10.6609C9.68215 10.5423 9.39844 10.4749 9.09838 10.4767C8.00996 10.4829 7.13258 11.37 7.13889 12.4582C7.14084 12.8171 7.24036 13.152 7.40968 13.4408C7.39242 13.4582 7.37726 13.4773 7.36075 13.4953Z" fill="#FFD700"/>
<path fill-rule="evenodd" clip-rule="evenodd" d="M31.7076 11.1114C31.7068 10.9792 31.6926 10.8504 31.6671 10.7258C34.4305 11.762 36.31 13.2199 36.1576 14.8259C36.1503 14.9332 32.9694 37.704 32.9694 37.704C32.6025 41.3104 27.3644 44.1928 21.1248 44.2286C14.8851 44.1928 9.64717 41.3104 9.28016 37.704C9.28016 37.704 6.09925 14.9332 6.09189 14.8259C6.01519 14.0229 6.45125 13.4715 7.17191 12.7876C7.21334 13.0219 7.2935 13.2427 7.40968 13.4408C7.39931 13.4511 7.3897 13.4622 7.3801 13.4733C7.37372 13.4806 7.36734 13.488 7.36075 13.4951C7.47723 15.9662 13.5984 17.9245 21.1248 17.8815C27.6978 17.8438 33.1812 16.2917 34.5242 14.2524C34.2181 13.9123 33.7954 13.6791 33.3193 13.6159C33.3244 13.556 33.3277 13.4954 33.3274 13.4342C33.3218 12.4568 32.6049 11.6521 31.6707 11.5022C31.6954 11.3758 31.7083 11.2451 31.7076 11.1114ZM10.4384 38.2524L7.85789 18.5139C8.77774 19.2949 10.0265 19.8396 11.3061 20.2506L13.3174 40.6469C12.1409 40.0404 11.0167 39.1308 10.4384 38.2524ZM31.8113 38.2524C31.2328 39.1308 30.1086 40.0404 28.9321 40.6469L30.9434 20.2506C32.223 19.8396 33.4718 19.2949 34.3916 18.5139L31.8113 38.2524ZM26.9306 41.4977C24.983 42.1421 23.8505 42.3419 22.2294 42.501L22.482 21.5415C24.2729 21.4901 26.5906 21.2474 28.5654 20.826L26.9306 41.4977ZM13.6843 20.826L15.3189 41.4977C17.2667 42.1421 18.399 42.3419 20.0201 42.501L19.7675 21.5415C17.9766 21.4901 15.6589 21.2474 13.6843 20.826Z" fill="#FA320A"/>
</svg>
