<svg width="75" height="48" viewBox="0 0 75 48" fill="none" xmlns="http://www.w3.org/2000/svg">
<path d="M19.3103 22.2597V22.2228C19.3103 18.5289 22.1702 15.5013 26.0893 15.5013C28.4154 15.5013 29.8178 16.1321 31.1652 17.2829L29.3758 19.4566C28.3787 18.6198 27.4932 18.1382 25.9975 18.1382C23.9299 18.1382 22.2874 19.9752 22.2874 22.1858V22.2228C22.2874 24.5996 23.9116 26.3429 26.2009 26.3429C27.2347 26.3429 28.157 26.0829 28.8772 25.5643V23.7089H26.0145V21.2382H31.6256V26.8827C30.0941 28.2186 28.1333 28.951 26.1063 28.9442C22.0826 28.9442 19.3103 26.1042 19.3103 22.2597Z" fill="white"/>
<path d="M13.0751 15.7228H15.9209V28.721H13.0751V15.7228Z" fill="white"/>
<path fill-rule="evenodd" clip-rule="evenodd" d="M40.1364 15.7228H35.0973V28.721H40.1364C44.1967 28.721 47.003 25.881 47.003 22.2226V22.1857C47.003 18.5273 44.1967 15.7228 40.1364 15.7228ZM37.9388 26.1409V18.3042H40.1364C42.461 18.3042 44.0301 19.9196 44.0301 22.2226V22.2595C44.0301 24.5625 42.461 26.1409 40.1364 26.1409H37.9388Z" fill="white"/>
<path fill-rule="evenodd" clip-rule="evenodd" d="M50.2693 15.7228H56.2687C57.746 15.7228 58.9083 16.1319 59.647 16.875C59.9375 17.1623 60.166 17.5067 60.3184 17.8868C60.4708 18.2669 60.5436 18.6745 60.5325 19.0842V19.1211C60.5325 20.5888 59.7571 21.4057 58.8377 21.9257C60.3291 22.5067 61.2556 23.3734 61.2556 25.1194V25.1564C61.2556 27.5333 59.3363 28.721 56.4199 28.721H50.2693V15.7228ZM57.7079 19.5673C57.7079 18.7148 57.0441 18.2304 55.8436 18.2304H53.0388V20.978H55.66C56.9142 20.978 57.7079 20.5703 57.7079 19.6042V19.5673ZM56.3238 23.3592H53.0388V26.2148H56.417C57.6712 26.2148 58.4282 25.7687 58.4282 24.804V24.7671C58.431 23.8934 57.7827 23.3592 56.3238 23.3592Z" fill="white"/>
<path fill-rule="evenodd" clip-rule="evenodd" d="M67.1055 38.8309L68.1619 39L68.1689 9H6.16895V39L7.22393 38.8309C27.0605 35.6659 47.2689 35.6659 67.1055 38.8309ZM66.34 36.8561C56.6847 35.369 46.9311 34.6214 37.1633 34.6199C27.3974 34.6216 17.6456 35.3692 7.99223 36.8561V10.837H66.34V36.8561Z" fill="white"/>
</svg>
