<svg width="48" height="48" viewBox="0 0 48 48" fill="none" xmlns="http://www.w3.org/2000/svg">
<path d="M18.2579 9L12.8788 3.62115L15 1.5L24 10.5L15 19.5L12.8788 17.3789L18.2579 12H9C7.34315 12 6 13.3431 6 15V33C6 34.6569 7.34315 36 9 36H39C40.6569 36 42 34.6569 42 33V15C42 13.3431 40.6569 12 39 12H27V9H39C42.3137 9 45 11.6863 45 15V33C45 36.3137 42.3137 39 39 39H9C5.68629 39 3 36.3137 3 33V15C3 11.6863 5.68629 9 9 9H18.2579Z" fill="#FAFAFA"/>
<path d="M27 16H33V32H30V19H27V16Z" fill="#FAFAFA"/>
</svg>
