<svg width="48" height="48" viewBox="0 0 48 48" fill="none" xmlns="http://www.w3.org/2000/svg">
<path d="M9.90909 25.5L10 25.485L10 25.5H16.2579L10.8788 30.8789L13 33L20.5858 25.4142C21.3668 24.6332 21.3668 23.3668 20.5858 22.5858L13 15L10.8788 17.1212L16.2579 22.5H1.5C0.671574 22.5 0 23.1716 0 24C0 24.8284 0.671573 25.5 1.5 25.5H9.90909Z" fill="#FAFAFA"/>
<path d="M38.0909 25.5L38 25.485L38 25.5H31.7421L37.1212 30.8789L35 33L27.4142 25.4142C26.6332 24.6332 26.6332 23.3668 27.4142 22.5858L35 15L37.1212 17.1212L31.7421 22.5H46.5C47.3284 22.5 48 23.1716 48 24C48 24.8284 47.3284 25.5 46.5 25.5H38.0909Z" fill="#FAFAFA"/>
</svg>
