<svg width="48" height="48" viewBox="0 0 48 48" fill="none" xmlns="http://www.w3.org/2000/svg">
<path d="M39.2579 10.5L33.8788 5.12115L36 3L45 12L36 21L33.8788 18.8789L39.2579 13.5L31.9989 13.5L31.9817 13.5002C31.9649 13.5003 31.9377 13.5007 31.901 13.5015C31.8274 13.5032 31.7162 13.5066 31.5749 13.5136C31.2912 13.5278 30.892 13.5562 30.4366 13.6131C29.493 13.731 28.4435 13.9553 27.6708 14.3416C26.93 14.7121 26.34 15.2887 25.9213 15.812C25.7162 16.0684 25.5636 16.2977 25.465 16.458C25.4159 16.5377 25.381 16.5991 25.3602 16.6367C25.3499 16.6555 25.3432 16.6682 25.34 16.6741L25.3389 16.6762L25.3381 16.6778L25.3253 16.7035L21.221 24L25.3253 31.2965L25.3381 31.3222L25.3389 31.3238L25.34 31.3259L25.3498 31.3443L25.3602 31.3633C25.381 31.4009 25.4159 31.4623 25.465 31.542C25.5636 31.7023 25.7162 31.9316 25.9213 32.188C26.34 32.7113 26.93 33.2879 27.6708 33.6584C28.4435 34.0447 29.493 34.269 30.4366 34.3869C30.892 34.4438 31.2912 34.4722 31.5749 34.4864C31.7162 34.4934 31.8274 34.4968 31.901 34.4985C31.9377 34.4993 31.9649 34.4997 31.9817 34.4998L31.9989 34.5L39.2579 34.5L33.8788 29.1212L36 27L45 36L36 45L33.8788 42.8789L39.2579 37.5H32L31.9943 37.5L31.9838 37.5L31.95 37.4997C31.9218 37.4994 31.8827 37.4988 31.8336 37.4977C31.7353 37.4955 31.5967 37.4912 31.4257 37.4826C31.0845 37.4657 30.6092 37.4318 30.0648 37.3638C29.0088 37.2319 27.5583 36.9562 26.3292 36.3416C25.07 35.7121 24.16 34.7887 23.5787 34.062C23.2838 33.6934 23.0614 33.3602 22.91 33.1143C22.8341 32.9909 22.7753 32.8882 22.7335 32.8125C22.7126 32.7746 22.6959 32.7434 22.6834 32.7195L22.6797 32.7123L19.5 27.0596L16.3203 32.7123L16.3166 32.7195C16.3041 32.7434 16.2874 32.7746 16.2665 32.8125C16.2247 32.8882 16.1659 32.9909 16.09 33.1143C15.9386 33.3602 15.7162 33.6934 15.4213 34.062C14.84 34.7887 13.93 35.7121 12.6708 36.3416C11.4425 36.9558 9.99201 37.2314 8.93605 37.3634C8.39159 37.4315 7.9161 37.4654 7.57491 37.4825C7.4038 37.4911 7.26513 37.4954 7.16689 37.4977C7.11774 37.4988 7.07861 37.4994 7.05048 37.4997L7.01665 37.4999L7.00613 37.5L7 37.5H3V34.5H6.99856L7.00069 34.5L7.01788 34.4998C7.03468 34.4997 7.06195 34.4993 7.09873 34.4984C7.17237 34.4968 7.2837 34.4933 7.42509 34.4862C7.7089 34.4721 8.10841 34.4435 8.56395 34.3866C9.50799 34.2686 10.5575 34.0442 11.3292 33.6584C12.07 33.2879 12.66 32.7113 13.0787 32.188C13.2838 31.9316 13.4364 31.7023 13.535 31.542C13.5841 31.4623 13.619 31.4009 13.6398 31.3633C13.6501 31.3445 13.6568 31.3318 13.66 31.3259L13.6611 31.3238L13.6747 31.2965L17.779 24L13.6747 16.7035L13.6611 16.6762L13.66 16.6741C13.6568 16.6682 13.6501 16.6555 13.6398 16.6367C13.619 16.5991 13.5841 16.5377 13.535 16.458C13.4364 16.2977 13.2838 16.0684 13.0787 15.812C12.66 15.2887 12.07 14.7121 11.3292 14.3416C10.5575 13.9558 9.50799 13.7314 8.56395 13.6134C8.10841 13.5565 7.7089 13.5279 7.42509 13.5138C7.2837 13.5067 7.17237 13.5032 7.09873 13.5016C7.06195 13.5007 7.03468 13.5003 7.01788 13.5002L7.00069 13.5L6.99856 13.5H3V10.5H7C6.99973 10.5 7 10.5 7 12V10.5L7.00613 10.5L7.01665 10.5001L7.05048 10.5003C7.07861 10.5006 7.11774 10.5012 7.16689 10.5023C7.26513 10.5046 7.4038 10.5089 7.57491 10.5175C7.9161 10.5346 8.39159 10.5685 8.93605 10.6366C9.99201 10.7686 11.4425 11.0442 12.6708 11.6584C13.93 12.2879 14.84 13.2113 15.4213 13.938C15.7162 14.3066 15.9386 14.6398 16.09 14.8857C16.1659 15.0091 16.2247 15.1118 16.2665 15.1875C16.2874 15.2254 16.3041 15.2566 16.3166 15.2805L16.3203 15.2877L19.5 20.9404L22.6797 15.2877L22.6834 15.2805C22.6959 15.2566 22.7126 15.2254 22.7335 15.1875C22.7753 15.1118 22.8341 15.0091 22.91 14.8857C23.0614 14.6398 23.2838 14.3066 23.5787 13.938C24.16 13.2113 25.07 12.2879 26.3292 11.6584C27.5583 11.0438 29.0088 10.7681 30.0648 10.6362C30.6092 10.5682 31.0845 10.5343 31.4257 10.5174C31.5967 10.5088 31.7353 10.5045 31.8336 10.5023C31.8827 10.5012 31.9218 10.5006 31.95 10.5003L31.9838 10.5L31.9943 10.5L32 10.5H39.2579Z" fill="#FAFAFA"/>
</svg>
