<svg width="48" height="48" viewBox="0 0 48 48" fill="none" xmlns="http://www.w3.org/2000/svg">
<path fill-rule="evenodd" clip-rule="evenodd" d="M41.972 8.015C43.952 8.574 45.51 10.22 46.039 12.309C47 16.097 47 24 47 24C47 24 47 31.903 46.039 35.692C45.51 37.782 43.952 39.426 41.972 39.985C38.385 41 24 41 24 41C24 41 9.615 41 6.027 39.985C4.048 39.426 2.49 37.782 1.961 35.692C1 31.903 1 24 1 24C1 24 1 16.097 1.961 12.309C2.49 10.22 4.048 8.574 6.027 8.015C9.615 7 24 7 24 7C24 7 38.385 7 41.972 8.015ZM32.002 24L19.002 31V17L32.002 24Z" fill="#FAFAFA"/>
</svg>
