<svg width="48" height="336" viewBox="0 0 48 336" fill="none" xmlns="http://www.w3.org/2000/svg">
<path d="M24 9.78L28.14 18.15L28.83 19.65L30.33 19.875L39.57 21.21L33 27.66L31.875 28.755L32.145 30.255L33.72 39.45L25.455 35.115L24 34.5L22.605 35.235L14.34 39.51L15.84 30.315L16.11 28.815L15 27.66L8.37004 21.135L17.61 19.8L19.11 19.575L19.8 18.075L24 9.78ZM24 3L17.175 16.83L1.92004 19.035L12.96 29.805L10.35 45L24 37.83L37.65 45L35.04 29.805L46.08 19.05L30.825 16.83L24 3Z" fill="#FAFAFA"/>
<path d="M24 99L17.175 112.83L1.92004 115.035L12.96 125.805L10.35 141L24 133.83L37.65 141L35.04 125.805L46.08 115.05L30.825 112.83L24 99Z" fill="#FAFAFA"/>
<path fill-rule="evenodd" clip-rule="evenodd" d="M17.175 208.83L24 195L30.825 208.83L46.08 211.05L35.04 221.805L37.65 237L24 229.83L10.35 237L12.96 221.805L1.92004 211.05L1.93342 211.048L1.92004 211.035L17.175 208.83ZM24 226.5L25.455 227.115L33.72 231.45L32.145 222.255L31.875 220.755L33 219.66L39.57 213.21L30.33 211.875L28.83 211.65L28.14 210.15L24 201.78V226.5Z" fill="#FAFAFA"/>
<path d="M23.9999 290L17.1749 303.83L1.91992 306.035L12.9599 316.805L12.5065 319.445L0.999878 330.952L3.1212 333.073L43.0727 293.121L40.9514 291L29.9316 302.02L23.9999 290Z" fill="#FAFAFA"/>
<path d="M23.9999 324.83L10.5487 331.896L37.6247 304.82L46.0799 306.05L35.0399 316.805L37.6499 332L23.9999 324.83Z" fill="#FAFAFA"/>
</svg>
