<svg width="48" height="48" viewBox="0 0 48 48" fill="none" xmlns="http://www.w3.org/2000/svg">
<path d="M8.74215 9L14.1212 3.62115L12 1.5L3 10.5L12 19.5L14.1212 17.3789L8.74215 12H39C40.6569 12 42 13.3431 42 15V33C42 34.6569 40.6569 36 39 36H27V39H39C42.3137 39 45 36.3137 45 33V15C45 11.6863 42.3137 9 39 9H8.74215Z" fill="#FAFAFA"/>
<path d="M3 28V31H6V44H9V28H3Z" fill="#FAFAFA"/>
<path fill-rule="evenodd" clip-rule="evenodd" d="M16 28C14.3431 28 13 29.3431 13 31V41C13 42.6569 14.3431 44 16 44H20C21.6569 44 23 42.6569 23 41V31C23 29.3431 21.6569 28 20 28H16ZM20 31H16V41H20V31Z" fill="#FAFAFA"/>
</svg>
