<svg width="48" height="48" viewBox="0 0 48 48" fill="none" xmlns="http://www.w3.org/2000/svg">
<path d="M18 3H30V6H18V3Z" fill="#FAFAFA"/>
<path d="M18 18H21V36H18V18Z" fill="#FAFAFA"/>
<path d="M27 18H30V36H27V18Z" fill="#FAFAFA"/>
<path fill-rule="evenodd" clip-rule="evenodd" d="M6 9V12H9V42C9 42.7957 9.31607 43.5587 9.87868 44.1213C10.4413 44.6839 11.2044 45 12 45H36C36.7956 45 37.5587 44.6839 38.1213 44.1213C38.6839 43.5587 39 42.7957 39 42V12H42V9H6ZM12 42V12H36V42H12Z" fill="#FAFAFA"/>
</svg>
