<svg width="48" height="48" viewBox="0 0 48 48" fill="none" xmlns="http://www.w3.org/2000/svg">
<path fill-rule="evenodd" clip-rule="evenodd" d="M6 5H42C42.7957 5 43.5587 5.31607 44.1213 5.87868C44.6839 6.44129 45 7.20435 45 8V34C45 34.7957 44.6839 35.5587 44.1213 36.1213C43.5587 36.6839 42.7957 37 42 37H6C5.20435 37 4.44129 36.6839 3.87868 36.1213C3.31607 35.5587 3 34.7957 3 34V8C3 7.20435 3.31607 6.44129 3.87868 5.87868C4.44129 5.31607 5.20435 5 6 5ZM6 34H42V8H6V34Z" fill="#FAFAFA"/>
<path d="M36 43V40H12V43H36Z" fill="#FAFAFA"/>
</svg>
