<svg width="48" height="48" viewBox="0 0 48 48" fill="none" xmlns="http://www.w3.org/2000/svg">
<path fill-rule="evenodd" clip-rule="evenodd" d="M17.2545 22.5893L0 39.8438L2.12132 41.9651L41.9651 2.12132L39.8438 0L32.0892 7.75451C31.6979 7.3963 31.2783 7.0668 30.8335 6.76957C29.1068 5.61581 27.0767 5 25 5C22.2152 5 19.5445 6.10625 17.5754 8.07538C15.6062 10.0445 14.5 12.7152 14.5 15.5C14.5 17.5767 15.1158 19.6068 16.2696 21.3335C16.5668 21.7783 16.8963 22.1979 17.2545 22.5893ZM19.3787 20.465L29.965 9.87873C28.5985 8.67165 26.8339 8 25 8C23.5166 8 22.0666 8.43987 20.8332 9.26398C19.5998 10.0881 18.6385 11.2594 18.0709 12.6299C17.5032 14.0003 17.3547 15.5083 17.6441 16.9632C17.9032 18.2659 18.5031 19.4736 19.3787 20.465Z" fill="#FAFAFA"/>
<path d="M22.5359 25.7068C24.0094 26.0625 25.5491 26.0965 27.0484 25.7982C29.0852 25.3931 30.9562 24.3931 32.4246 22.9246C33.8931 21.4562 34.8931 19.5852 35.2982 17.5484C35.5965 16.0491 35.5625 14.5094 35.2068 13.0359L32.4959 15.7467C32.45 17.1437 32.0144 18.5019 31.236 19.6668C30.4119 20.9001 29.2406 21.8614 27.8701 22.4291C27.0325 22.776 26.1435 22.9664 25.2467 22.9959L22.5359 25.7068Z" fill="#FAFAFA"/>
<path d="M10.088 38.1547C10.0302 38.5984 10.0005 39.0477 9.99999 39.5V41H13V39.5C13.0023 37.5116 13.7933 35.6053 15.1993 34.1993C16.6053 32.7933 18.5116 32.0023 20.5 32H29.5C31.4884 32.0023 33.3947 32.7933 34.8007 34.1993C36.2067 35.6053 36.9977 37.5116 37 39.5V41H40V39.5C39.9967 36.7162 38.8894 34.0474 36.921 32.079C34.9526 30.1105 32.2838 29.0033 29.5 29H20.5C20.0477 29.0005 19.5984 29.0302 19.1547 29.088L10.088 38.1547Z" fill="#FAFAFA"/>
</svg>
