<svg width="48" height="48" viewBox="0 0 48 48" fill="none" xmlns="http://www.w3.org/2000/svg">
<path d="M33.5 12L34.8612 16.1388L39 17.5L34.8612 18.8612L33.5 23L32.1388 18.8612L28 17.5L32.1388 16.1388L33.5 12Z" fill="#FAFAFA"/>
<path d="M20 15L22.4749 22.5251L30 25L22.4749 27.4749L20 35L17.5251 27.4749L10 25L17.5251 22.5251L20 15Z" fill="#FAFAFA"/>
<path fill-rule="evenodd" clip-rule="evenodd" d="M3 11C3 8.23858 5.23858 6 8 6H40C42.7614 6 45 8.23858 45 11V37C45 39.7614 42.7614 42 40 42H8C5.23858 42 3 39.7614 3 37V11ZM8 9H40C41.1046 9 42 9.89543 42 11V37C42 38.1046 41.1046 39 40 39H8C6.89543 39 6 38.1046 6 37V11C6 9.89543 6.89543 9 8 9Z" fill="#FAFAFA"/>
</svg>
