<svg width="48" height="48" viewBox="0 0 48 48" fill="none" xmlns="http://www.w3.org/2000/svg">
<path d="M6 6H29C29.7957 6 30.5587 6.31607 31.1213 6.87868C31.6839 7.44129 32 8.20435 32 9V17H29V9H6V26H29V24H32V26C32 26.7957 31.6839 27.5587 31.1213 28.1213C30.5587 28.6839 29.7957 29 29 29H6C5.20435 29 4.44129 28.6839 3.87868 28.1213C3.31607 27.5587 3 26.7957 3 26V9C3 8.20435 3.31607 7.44129 3.87868 6.87868C4.44129 6.31607 5.20435 6 6 6Z" fill="#FAFAFA"/>
<path d="M19 19H42C42.7957 19 43.5587 19.3161 44.1213 19.8787C44.6839 20.4413 45 21.2043 45 22V39C45 39.7957 44.6839 40.5587 44.1213 41.1213C43.5587 41.6839 42.7957 42 42 42H19C18.2043 42 17.4413 41.6839 16.8787 41.1213C16.3161 40.5587 16 39.7957 16 39V31H19V39H42V22H19V24H16V22C16 21.2043 16.3161 20.4413 16.8787 19.8787C17.4413 19.3161 18.2043 19 19 19Z" fill="#FAFAFA"/>
</svg>
