<svg width="169" height="48" viewBox="0 0 169 48" fill="none" xmlns="http://www.w3.org/2000/svg">
<g clip-path="url(#clip0_67_328)">
<path d="M22.968 9H35.9128C42.7405 9 46.3114 13.4741 46.3114 18.7591C46.3114 22.7729 44.7992 25.8229 40.7995 27.5183L47.389 38.9535H39.8578L30.8355 23.6266V23.2451H35.268C37.6334 23.2451 39.5863 21.3916 39.5863 19.125C39.5863 16.8584 38.0818 15.0049 35.4666 15.0049H30.5013V38.9535H22.968V9Z" fill="white"/>
<path d="M99.7146 9H107.268V38.9535H99.7146V9Z" fill="white"/>
<path d="M117.273 38.9535H126.76L116.408 23.4141L126.631 9H117.143L108.168 23.8156L108.07 23.977L111.818 29.8835L117.273 38.9535Z" fill="white"/>
<path d="M128.348 9H135.88V32.3822H147.21V38.9535H128.348V9Z" fill="white"/>
<path d="M156.453 20.4037V15.5713H167.847V9H148.922V38.9535H168.169V32.3822H156.453V26.9714H166.431V20.4037H156.453Z" fill="white"/>
<path fill-rule="evenodd" clip-rule="evenodd" d="M57.7444 32.6734H68.1195L70.0702 38.9535H78.0892L67.9741 9H57.8938L47.7743 38.9535H55.7937L57.7444 32.6734ZM66.1216 26.2356H59.7459L62.9316 15.9768L66.1216 26.2356Z" fill="white"/>
<path d="M97.5417 9.34997V15.3588C95.4416 15.2134 92.9718 15.048 90.9069 15.3588C84.8382 16.2676 83.143 21.2454 83.143 23.9766C83.143 26.8057 85.1137 31.9217 91.5793 32.5509C93.1053 32.7016 94.8786 32.615 96.4754 32.5371C96.8417 32.5192 97.1987 32.5018 97.5414 32.4878V38.6032C94.3597 39.1657 90.6035 39.2009 87.1272 38.2449C80.5475 36.4824 76.754 30.9653 76.754 23.9766C76.754 16.9879 81.2474 11.3605 87.3041 9.7119C90.7811 8.75594 94.4191 8.97644 97.5417 9.34997Z" fill="white"/>
<path d="M20.956 15.3588V9.34996C17.833 8.97643 14.195 8.75593 10.7201 9.71189C4.66416 11.3605 0.168945 16.9879 0.168945 23.9766C0.168945 30.9653 3.96244 36.4824 10.5411 38.2449C14.0174 39.2009 17.7736 39.1657 20.9556 38.6032V32.4878C20.6136 32.5017 20.2571 32.5192 19.8913 32.537C18.2946 32.615 16.5203 32.7016 14.9971 32.5509C8.52834 31.9217 6.55728 26.8057 6.55728 23.9766C6.55728 21.2454 8.25214 16.2676 14.3226 15.3588C16.3857 15.048 18.8555 15.2134 20.956 15.3588Z" fill="white"/>
</g>
<defs>
<clipPath id="clip0_67_328">
<rect width="168" height="48" fill="white" transform="translate(0.168945)"/>
</clipPath>
</defs>
</svg>
