<svg width="48" height="48" viewBox="0 0 48 48" fill="none" xmlns="http://www.w3.org/2000/svg">
<path fill-rule="evenodd" clip-rule="evenodd" d="M6.53914 12.333C4.23163 15.7865 3 19.8466 3 24C3.00627 29.5676 5.22078 34.9054 9.15768 38.8423C13.0946 42.7792 18.4324 44.9937 24 45C28.1534 45 32.2135 43.7684 35.667 41.4609C39.1204 39.1534 41.812 35.8736 43.4015 32.0364C44.9909 28.1991 45.4068 23.9767 44.5965 19.9031C43.7862 15.8295 41.7861 12.0877 38.8492 9.15077C35.9123 6.21386 32.1705 4.21381 28.0969 3.40352C24.0233 2.59323 19.8009 3.0091 15.9636 4.59854C12.1264 6.18798 8.84665 8.8796 6.53914 12.333ZM24 36.7071L36.7025 24.0046L33.916 21.1441L26 29.022V11.5L22 11.5V29.0168L14.1404 21.1473L11.2933 24.0004L24 36.7071Z" fill="#FAFAFA"/>
</svg>
