<svg width="48" height="48" viewBox="0 0 48 48" fill="none" xmlns="http://www.w3.org/2000/svg">
<path d="M5.99998 21H2.99998V8.99998C2.97592 8.59974 3.03704 8.19895 3.17929 7.82407C3.32154 7.44919 3.5417 7.10875 3.82523 6.82523C4.10875 6.5417 4.44919 6.32155 4.82407 6.17929C5.19895 6.03704 5.59974 5.97592 5.99998 5.99998H18V8.99998H5.99998V21Z" fill="#FAFAFA"/>
<path d="M8.99998 28.5H12V15H27V12H12C11.5997 11.9759 11.199 12.037 10.8241 12.1793C10.4492 12.3215 10.1088 12.5417 9.82523 12.8252C9.5417 13.1087 9.32155 13.4492 9.17929 13.8241C9.03704 14.1989 8.97592 14.5997 8.99998 15V28.5Z" fill="#FAFAFA"/>
<path fill-rule="evenodd" clip-rule="evenodd" d="M18 42H36C36.4002 42.024 36.801 41.9629 37.1759 41.8207C37.5508 41.6784 37.8912 41.4583 38.1748 41.1747C38.4583 40.8912 38.6784 40.5508 38.8207 40.1759C38.9629 39.801 39.0241 39.4002 39 39V21C39.0241 20.5997 38.9629 20.1989 38.8207 19.8241C38.6784 19.4492 38.4583 19.1087 38.1748 18.8252C37.8912 18.5417 37.5508 18.3215 37.1759 18.1793C36.801 18.037 36.4002 17.9759 36 18H18C17.5998 17.9759 17.199 18.037 16.8241 18.1793C16.4492 18.3215 16.1088 18.5417 15.8252 18.8252C15.5417 19.1087 15.3216 19.4492 15.1793 19.8241C15.0371 20.1989 14.9759 20.5997 15 21V39C14.9759 39.4002 15.0371 39.801 15.1793 40.1759C15.3216 40.5508 15.5417 40.8912 15.8252 41.1747C16.1088 41.4583 16.4492 41.6784 16.8241 41.8207C17.199 41.9629 17.5998 42.024 18 42ZM36 21V39H18V21H36Z" fill="#FAFAFA"/>
</svg>
