<svg width="48" height="48" viewBox="0 0 48 48" fill="none" xmlns="http://www.w3.org/2000/svg">
<path d="M6 6H16.755C17.1509 5.99969 17.5429 6.07772 17.9085 6.22962C18.274 6.38151 18.6059 6.60425 18.885 6.885L24 12H42C42.7957 12 43.5587 12.3161 44.1213 12.8787C44.6839 13.4413 45 14.2044 45 15V39C45 39.7957 44.6839 40.5587 44.1213 41.1213C43.5587 41.6839 42.7957 42 42 42H6C5.20435 42 4.44129 41.6839 3.87868 41.1213C3.31607 40.5587 3 39.7957 3 39V9C3 8.20435 3.31607 7.44129 3.87868 6.87868C4.44129 6.31607 5.20435 6 6 6Z" fill="#FAFAFA"/>
</svg>
