<svg width="48" height="48" viewBox="0 0 48 48" fill="none" xmlns="http://www.w3.org/2000/svg">
<path d="M30 6V9C31.9891 9 33.8968 9.79018 35.3033 11.1967C36.7098 12.6032 37.5 14.5109 37.5 16.5C37.5 18.4891 36.7098 20.3968 35.3033 21.8033C33.8968 23.2098 31.9891 24 30 24V27C32.7848 27 35.4555 25.8938 37.4246 23.9246C39.3938 21.9555 40.5 19.2848 40.5 16.5C40.5 13.7152 39.3938 11.0445 37.4246 9.07538C35.4555 7.10625 32.7848 6 30 6Z" fill="#FAFAFA"/>
<path d="M30 42H33V40.5C32.9967 37.7162 31.8895 35.0474 29.921 33.079C27.9526 31.1105 25.2838 30.0033 22.5 30H13.5C10.7162 30.0033 8.0474 31.1105 6.07897 33.079C4.11055 35.0474 3.00326 37.7162 3 40.5V42H6V40.5C6.00234 38.5116 6.79327 36.6053 8.19929 35.1993C9.6053 33.7933 11.5116 33.0023 13.5 33H22.5C24.4884 33.0023 26.3947 33.7933 27.8007 35.1993C29.2067 36.6053 29.9977 38.5116 30 40.5V42Z" fill="#FAFAFA"/>
<path d="M42 42H45V40.5C44.9969 37.7162 43.8897 35.0473 41.9212 33.0788C39.9527 31.1103 37.2838 30.0031 34.5 30V33C36.4884 33.0023 38.3948 33.7932 39.8008 35.1992C41.2068 36.6052 41.9977 38.5116 42 40.5V42Z" fill="#FAFAFA"/>
<path fill-rule="evenodd" clip-rule="evenodd" d="M12.1665 7.76957C13.8932 6.61581 15.9233 6 18 6C20.7848 6 23.4555 7.10625 25.4246 9.07538C27.3938 11.0445 28.5 13.7152 28.5 16.5C28.5 18.5767 27.8842 20.6068 26.7304 22.3335C25.5767 24.0602 23.9368 25.406 22.0182 26.2007C20.0996 26.9955 17.9884 27.2034 15.9516 26.7982C13.9148 26.3931 12.0438 25.3931 10.5754 23.9246C9.10693 22.4562 8.1069 20.5852 7.70176 18.5484C7.29661 16.5116 7.50455 14.4004 8.29927 12.4818C9.09399 10.5632 10.4398 8.92332 12.1665 7.76957ZM22.1668 10.264C20.9334 9.43987 19.4834 9 18 9C16.0109 9 14.1032 9.79018 12.6967 11.1967C11.2902 12.6032 10.5 14.5109 10.5 16.5C10.5 17.9834 10.9399 19.4334 11.764 20.6668C12.5881 21.9001 13.7594 22.8614 15.1299 23.4291C16.5003 23.9968 18.0083 24.1453 19.4632 23.8559C20.918 23.5665 22.2544 22.8522 23.3033 21.8033C24.3522 20.7544 25.0665 19.418 25.3559 17.9632C25.6453 16.5083 25.4968 15.0003 24.9291 13.6299C24.3614 12.2594 23.4002 11.0881 22.1668 10.264Z" fill="#FAFAFA"/>
</svg>
