<svg width="48" height="48" viewBox="0 0 48 48" fill="none" xmlns="http://www.w3.org/2000/svg">
<path fill-rule="evenodd" clip-rule="evenodd" d="M24 45C19.8466 45 15.7865 43.7684 12.333 41.4609C8.8796 39.1534 6.18798 35.8736 4.59854 32.0364C3.0091 28.1991 2.59323 23.9767 3.40352 19.9031C4.21381 15.8295 6.21386 12.0877 9.15077 9.15077C12.0877 6.21386 15.8295 4.21381 19.9031 3.40352C23.9767 2.59323 28.1991 3.0091 32.0364 4.59854C35.8736 6.18798 39.1534 8.8796 41.4609 12.333C43.7684 15.7865 45 19.8466 45 24C45 29.5696 42.7875 34.911 38.8493 38.8493C34.911 42.7875 29.5696 45 24 45ZM22.4722 11.9635C22.9244 11.6613 23.4561 11.5 24 11.5C24.7293 11.5 25.4288 11.7897 25.9445 12.3055C26.4603 12.8212 26.75 13.5207 26.75 14.25C26.75 14.7939 26.5887 15.3256 26.2865 15.7778C25.9844 16.2301 25.5549 16.5825 25.0524 16.7907C24.5499 16.9988 23.997 17.0533 23.4635 16.9472C22.9301 16.8411 22.4401 16.5791 22.0555 16.1945C21.6709 15.8099 21.409 15.3199 21.3028 14.7865C21.1967 14.2531 21.2512 13.7001 21.4593 13.1976C21.6675 12.6951 22.0199 12.2656 22.4722 11.9635ZM26 20.5V36.5H22V20.5H26Z" fill="#FAFAFA"/>
</svg>
