<svg width="48" height="48" viewBox="0 0 48 48" fill="none" xmlns="http://www.w3.org/2000/svg">
<path d="M24 12C23.555 12 23.12 12.132 22.75 12.3792C22.38 12.6264 22.0916 12.9778 21.9213 13.389C21.751 13.8001 21.7064 14.2525 21.7932 14.689C21.8801 15.1254 22.0943 15.5263 22.409 15.841C22.7237 16.1557 23.1246 16.37 23.561 16.4568C23.9975 16.5436 24.4499 16.499 24.861 16.3287C25.2722 16.1584 25.6236 15.87 25.8708 15.5C26.118 15.13 26.25 14.695 26.25 14.25C26.25 13.6533 26.0129 13.081 25.591 12.659C25.169 12.2371 24.5967 12 24 12Z" fill="#FAFAFA"/>
<path d="M25.5 21H22.5V36H25.5V21Z" fill="#FAFAFA"/>
<path fill-rule="evenodd" clip-rule="evenodd" d="M12.333 41.4609C15.7865 43.7684 19.8466 45 24 45C29.5696 45 34.911 42.7875 38.8493 38.8493C42.7875 34.911 45 29.5696 45 24C45 19.8466 43.7684 15.7865 41.4609 12.333C39.1534 8.8796 35.8736 6.18798 32.0364 4.59854C28.1991 3.0091 23.9767 2.59323 19.9031 3.40352C15.8295 4.21381 12.0877 6.21386 9.15077 9.15077C6.21386 12.0877 4.21381 15.8295 3.40352 19.9031C2.59323 23.9767 3.0091 28.1991 4.59854 32.0364C6.18798 35.8736 8.8796 39.1534 12.333 41.4609ZM13.9997 9.03356C16.9598 7.05569 20.4399 6.00001 24 6.00001C28.7739 6.00001 33.3523 7.89643 36.7279 11.2721C40.1036 14.6477 42 19.2261 42 24C42 27.5601 40.9443 31.0402 38.9665 34.0003C36.9886 36.9604 34.1774 39.2675 30.8883 40.6298C27.5992 41.9922 23.98 42.3487 20.4884 41.6541C16.9967 40.9596 13.7894 39.2453 11.2721 36.7279C8.75474 34.2106 7.04041 31.0033 6.34587 27.5116C5.65134 24.02 6.0078 20.4008 7.37018 17.1117C8.73256 13.8226 11.0397 11.0114 13.9997 9.03356Z" fill="#FAFAFA"/>
</svg>
