<svg width="48" height="48" viewBox="0 0 48 48" fill="none" xmlns="http://www.w3.org/2000/svg">
<path fill-rule="evenodd" clip-rule="evenodd" d="M9 7H39C39.7957 7 40.5587 7.31607 41.1213 7.87868C41.6839 8.44129 42 9.20435 42 10V19C42 19.7956 41.6839 20.5587 41.1213 21.1213C40.5587 21.6839 39.7957 22 39 22H9C8.20435 22 7.44129 21.6839 6.87868 21.1213C6.31607 20.5587 6 19.7956 6 19V10C6 9.20435 6.31607 8.44129 6.87868 7.87868C7.44129 7.31607 8.20435 7 9 7ZM39 19V10H9V19H39Z" fill="#FAFAFA"/>
<path d="M42 28.5H6V31.5H42V28.5Z" fill="#FAFAFA"/>
<path d="M42 38H6V41H42V38Z" fill="#FAFAFA"/>
</svg>
