<svg width="48" height="48" viewBox="0 0 48 48" fill="none" xmlns="http://www.w3.org/2000/svg">
<path d="M12 15C13.6569 15 15 13.6569 15 12V6C15 4.34315 13.6569 3 12 3H6C4.34315 3 3 4.34315 3 6V12C3 13.6569 4.34315 15 6 15H12Z" fill="#FAFAFA"/>
<path d="M12 30C13.6569 30 15 28.6569 15 27V21C15 19.3431 13.6569 18 12 18H6C4.34315 18 3 19.3431 3 21V27C3 28.6569 4.34315 30 6 30H12Z" fill="#FAFAFA"/>
<path d="M15 42C15 43.6569 13.6569 45 12 45H6C4.34315 45 3 43.6569 3 42V36C3 34.3431 4.34315 33 6 33H12C13.6569 33 15 34.3431 15 36V42Z" fill="#FAFAFA"/>
<path d="M46 8H19V11H46V8Z" fill="#FAFAFA"/>
<path d="M19 23H46V26H19V23Z" fill="#FAFAFA"/>
<path d="M46 38H19V41H46V38Z" fill="#FAFAFA"/>
</svg>
