<svg width="48" height="48" viewBox="0 0 48 48" fill="none" xmlns="http://www.w3.org/2000/svg">
<path d="M24 3C19.6256 3.00532 15.4318 4.74541 12.3386 7.83861C9.24543 10.9318 7.50534 15.1256 7.50002 19.5C7.49485 23.0749 8.66273 26.5528 10.8245 29.4C10.8245 29.4 11.2745 29.9918 11.3468 30.0776L24 45L36.6585 30.0711C36.7251 29.9911 37.1756 29.3994 37.1756 29.3994L37.1778 29.3958C39.3383 26.5496 40.5053 23.0733 40.5 19.5C40.4947 15.1256 38.7546 10.9318 35.6614 7.83861C32.5682 4.74541 28.3745 3.00532 24 3ZM24 25.5C22.8133 25.5 21.6533 25.1481 20.6666 24.4888C19.6799 23.8295 18.9109 22.8925 18.4567 21.7961C18.0026 20.6997 17.8838 19.4933 18.1153 18.3295C18.3468 17.1656 18.9183 16.0965 19.7574 15.2574C20.5965 14.4182 21.6656 13.8468 22.8295 13.6153C23.9934 13.3838 25.1998 13.5026 26.2961 13.9567C27.3925 14.4108 28.3295 15.1799 28.9888 16.1666C29.6481 17.1533 30 18.3133 30 19.5C29.9982 21.0907 29.3655 22.6158 28.2407 23.7407C27.1159 24.8655 25.5908 25.4982 24 25.5Z" fill="#FAFAFA"/>
</svg>
