<svg width="48" height="48" viewBox="0 0 48 48" fill="none" xmlns="http://www.w3.org/2000/svg">
<path d="M19 10.5C19 12.9853 21.0147 15 23.5 15C25.9853 15 28 12.9853 28 10.5C28 8.01472 25.9853 6 23.5 6C21.0147 6 19 8.01472 19 10.5Z" fill="#FAFAFA"/>
<path d="M19 23.5C19 25.9853 21.0147 28 23.5 28C25.9853 28 28 25.9853 28 23.5C28 21.0147 25.9853 19 23.5 19C21.0147 19 19 21.0147 19 23.5Z" fill="#FAFAFA"/>
<path d="M23.5 41C21.0147 41 19 38.9853 19 36.5C19 34.0147 21.0147 32 23.5 32C25.9853 32 28 34.0147 28 36.5C28 38.9853 25.9853 41 23.5 41Z" fill="#FAFAFA"/>
</svg>
