<svg width="105" height="48" viewBox="0 0 105 48" fill="none" xmlns="http://www.w3.org/2000/svg">
<path d="M83.2283 38.1208H73.2884L82.9363 23.8186L73.2884 9.50464H83.2283L92.8751 23.8186L83.2283 38.1208Z" fill="#EBAF00"/>
<path d="M42.5294 23.2691C42.5294 26.5691 42.8946 30.5737 46.1483 34.9533C46.2118 35.0384 46.3896 35.2528 46.3896 35.2528C45.0741 37.5109 43.4171 39.03 41.2462 39.03C39.5332 39.03 37.8611 38.124 36.4681 36.5445C34.9791 34.8563 34.2681 32.652 34.2681 30.3572V0H42.5315L42.5283 23.2691H42.5294Z" fill="white"/>
<path fill-rule="evenodd" clip-rule="evenodd" d="M17.113 8.5856C12.9921 8.5856 10.3029 9.78795 8.01351 12.5924V9.50137H0V47.6189C0 47.6189 0.162684 47.6954 0.545152 47.7773L0.580566 47.7849C1.24714 47.9286 4.10769 48.5452 6.25631 46.7085C8.15034 45.0881 8.5856 43.2124 8.5856 41.0534V35.5437C10.875 38.0044 13.5081 39.0354 17.1712 39.0354C25.0694 39.0354 31.1361 32.6251 31.1361 24.0966C31.1361 14.9971 25.2978 8.58668 17.113 8.58668V8.5856ZM15.5519 31.8612C11.1454 31.8612 7.62135 28.2111 7.62135 23.7421C7.62135 19.2732 11.7466 15.874 15.5519 15.874C20.0209 15.874 23.4825 19.3367 23.4825 23.8046C23.4825 28.2725 20.0209 31.8612 15.5519 31.8612Z" fill="white"/>
<path d="M104.15 9.5046L95.5265 22.1971L90.5361 14.7934L94.1712 9.5046H104.15Z" fill="white"/>
<path d="M90.5361 32.8966C90.5383 32.903 92.2276 35.2528 92.2276 35.2528C93.8587 37.8105 95.951 39.0257 98.4451 39.0354C100.955 38.9905 102.764 36.8304 103.487 35.968C103.509 35.9417 103.53 35.9166 103.55 35.8927C103.55 35.8927 103.547 35.8902 103.542 35.8854C103.431 35.786 102.2 34.681 100.691 32.8901C98.5378 30.3324 95.6364 25.6857 95.5265 25.4864L90.5372 32.8976L90.5361 32.8966Z" fill="white"/>
<path fill-rule="evenodd" clip-rule="evenodd" d="M60.7015 32.3115C63.0641 32.3115 64.1975 31.4238 65.8599 29.8907L65.861 29.8896H74.8032C72.0333 35.6945 66.9955 39.0333 61.1604 39.0333C52.8032 39.0333 46.1073 32.4505 46.1073 23.9231C46.1073 15.3957 52.4035 8.58452 60.988 8.58452C69.5726 8.58452 76.0982 15.2815 76.0982 24.2097C76.0982 25.1265 76.0077 25.6814 75.8687 26.1274H53.8246C54.1683 29.3897 56.5148 32.3115 60.7015 32.3115ZM68.0524 20.9C67.4232 17.7531 64.6923 15.3453 61.0424 15.345C57.3915 15.3453 54.8502 17.5646 54.095 20.9H68.0524Z" fill="white"/>
</svg>
