<svg width="49" height="48" viewBox="0 0 49 48" fill="none" xmlns="http://www.w3.org/2000/svg">
<path d="M24.1689 43.74C35.0707 43.74 43.9089 34.9018 43.9089 24C43.9089 13.0982 35.0707 4.26001 24.1689 4.26001C13.2671 4.26001 4.42889 13.0982 4.42889 24C4.42889 34.9018 13.2671 43.74 24.1689 43.74Z" fill="#24272B"/>
<path fill-rule="evenodd" clip-rule="evenodd" d="M3.16888 24C3.16888 35.5983 12.5706 45 24.1689 45C35.7672 45 45.1689 35.5983 45.1689 24C45.1689 12.4017 35.7672 3 24.1689 3C12.5706 3 3.16888 12.4017 3.16888 24ZM43.9089 24C43.9089 34.9018 35.0707 43.74 24.1689 43.74C13.2671 43.74 4.42888 34.9018 4.42888 24C4.42888 13.0982 13.2671 4.26 24.1689 4.26C35.0707 4.26 43.9089 13.0982 43.9089 24Z" fill="url(#paint0_linear_67_337)"/>
<path d="M16.9869 10.896H24.6141L33.0309 24.021L24.6141 37.146H16.9869L25.4037 24.021L16.9869 10.896Z" fill="url(#paint1_radial_67_337)"/>
<defs>
<linearGradient id="paint0_linear_67_337" x1="45.1689" y1="3" x2="3.16888" y2="3" gradientUnits="userSpaceOnUse">
<stop stop-color="#F9BE03"/>
<stop offset="0.47738" stop-color="#E5A00D"/>
<stop offset="1" stop-color="#CC7C19"/>
</linearGradient>
<radialGradient id="paint1_radial_67_337" cx="0" cy="0" r="1" gradientUnits="userSpaceOnUse" gradientTransform="translate(31.3089 23.9457) scale(14.8407 24.2812)">
<stop stop-color="#F9BE03"/>
<stop offset="1" stop-color="#CC7C19"/>
</radialGradient>
</defs>
</svg>
