<svg width="48" height="48" viewBox="0 0 48 48" fill="none" xmlns="http://www.w3.org/2000/svg">
<path d="M22.7112 35H19.8289V24.831H8.86734V35H6V13H8.86734V22.4588H19.8289V13H22.7112V35Z" fill="#FAFAFA"/>
<path d="M26.2745 35V13H32.4123C34.304 13 35.9766 13.4231 37.4302 14.2692C38.8838 15.1154 40.0038 16.3191 40.7903 17.8805C41.5868 19.4419 41.99 21.2349 42 23.2596V24.6648C42 26.7399 41.6018 28.5582 40.8053 30.1195C40.0188 31.6809 38.8887 32.8796 37.4153 33.7157C35.9517 34.5517 34.2443 34.9799 32.2929 35H26.2745ZM29.1418 15.3874V32.6277H32.1585C34.3687 32.6277 36.0861 31.9327 37.3107 30.5426C38.5453 29.1525 39.1625 27.1731 39.1625 24.6044V23.3201C39.1625 20.8219 38.5801 18.8828 37.4153 17.5027C36.2604 16.1126 34.6176 15.4075 32.487 15.3874H29.1418Z" fill="#FAFAFA"/>
</svg>
