<svg width="48" height="48" viewBox="0 0 48 48" fill="none" xmlns="http://www.w3.org/2000/svg">
<path d="M42 9H11V12H42V9Z" fill="#FAFAFA"/>
<path d="M42 18H19V21H42V18Z" fill="#FAFAFA"/>
<path d="M10.5 27H42V30H10.5V27Z" fill="#FAFAFA"/>
<path d="M42 36H10.5V39H42V36Z" fill="#FAFAFA"/>
<path d="M2.17307 25.8291C2.28389 25.9385 2.43419 26 2.59091 26C2.69047 26 2.78842 25.9751 2.87567 25.9278L14.6938 19.5111C14.7865 19.4608 14.8639 19.3868 14.9177 19.2969C14.9716 19.207 15 19.1044 15 19C15 18.8955 14.9716 18.793 14.9177 18.7031C14.8639 18.6132 14.7865 18.5392 14.6938 18.4888L2.87567 12.0722C2.78569 12.0234 2.68437 11.9985 2.58169 12.0001C2.47901 12.0017 2.37853 12.0296 2.29014 12.0812C2.20174 12.1328 2.1285 12.2063 2.07762 12.2943C2.02675 12.3824 1.99999 12.482 2 12.5834V25.4167C2 25.5714 2.06226 25.7198 2.17307 25.8291Z" fill="#FAFAFA"/>
</svg>
