<svg width="48" height="48" viewBox="0 0 48 48" fill="none" xmlns="http://www.w3.org/2000/svg">
<path d="M10.0852 10.1227C10.6564 10.7077 10.656 11.6362 10.1408 12.271C7.47668 15.5532 6.00215 19.6983 5.99963 23.9971C5.99712 28.2965 7.46725 32.444 10.1283 35.7298C10.6423 36.3645 10.6422 37.2919 10.0715 37.8763C9.47165 38.4906 8.47758 38.4883 7.93163 37.8257C4.75523 33.9704 2.99746 29.0746 3 23.9966C3.00254 18.9181 4.76526 14.0242 7.94599 10.1721C8.49235 9.51046 9.48573 9.50878 10.0852 10.1227Z" fill="#FAFAFA"/>
<path d="M37.9145 10.1227C38.514 9.50878 39.5074 9.51046 40.0538 10.1721C43.2345 14.0242 44.9972 18.9181 44.9998 23.9966C45.0023 29.0746 43.2445 33.9704 40.0681 37.8257C39.5222 38.4883 38.5281 38.4906 37.9282 37.8763C37.3576 37.2919 37.3574 36.3645 37.8715 35.7298C40.5325 32.444 42.0026 28.2965 42.0001 23.9971C41.9976 19.6983 40.5231 15.5532 37.859 12.271C37.3437 11.6362 37.3433 10.7077 37.9145 10.1227Z" fill="#FAFAFA"/>
<path d="M14.3409 16.7354C14.8472 16.0345 15.8534 16.0299 16.4574 16.6486C17.0241 17.2291 17.0227 18.1463 16.571 18.8203C15.5557 20.3351 15.0018 22.1381 14.9998 23.9978C14.9977 25.8585 15.5482 27.6635 16.561 29.1811C17.0108 29.8552 17.0111 30.771 16.4449 31.3508C15.8399 31.9703 14.832 31.9646 14.3264 31.2616C12.8209 29.1683 11.9974 26.625 11.9998 23.9975C12.0021 21.3691 12.8306 18.8264 14.3409 16.7354Z" fill="#FAFAFA"/>
<path d="M33.6591 16.7354C33.1528 16.0344 32.1465 16.0298 31.5424 16.6485C30.9757 17.2291 30.9771 18.1464 31.4288 18.8203C32.444 20.3352 32.9979 22.1381 33 23.9978C33.002 25.8585 32.4516 27.6635 31.4388 29.1811C30.9889 29.8552 30.9886 30.771 31.5548 31.3508C32.1598 31.9703 33.1678 31.9646 33.6733 31.2616C35.1788 29.1683 36.0023 26.625 36 23.9975C35.9977 21.3691 35.1692 18.8263 33.6591 16.7354Z" fill="#FAFAFA"/>
<path d="M24 28C26.2091 28 28 26.2091 28 24C28 21.7908 26.2091 20 24 20C21.7909 20 20 21.7908 20 24C20 26.2091 21.7909 28 24 28Z" fill="#FAFAFA"/>
</svg>
