<svg width="75" height="48" viewBox="0 0 75 48" fill="none" xmlns="http://www.w3.org/2000/svg">
<path fill-rule="evenodd" clip-rule="evenodd" d="M6.16895 12.1248C6.16895 10.399 7.55638 9 9.26876 9H65.0691C66.7811 9 68.1689 10.3993 68.1689 12.1248V35.8753C68.1689 37.601 66.7815 39 65.0691 39H9.26876C7.55675 39 6.16895 37.6008 6.16895 35.8753V12.1248Z" fill="#E1BE00"/>
<path fill-rule="evenodd" clip-rule="evenodd" d="M54.2738 14.9226V20.8376C54.6507 20.4016 55.0709 20.0763 55.5345 19.862C55.9982 19.6477 56.694 19.5397 57.237 19.5397C57.8626 19.5397 58.4048 19.6367 58.8645 19.8314C59.3246 20.0257 59.6749 20.2983 59.9163 20.6489C60.1573 20.9997 60.302 21.3432 60.3514 21.6792C60.4002 22.0152 60.4249 22.7319 60.4249 23.8298V28.9317C60.4249 30.0222 60.3514 30.8338 60.2044 31.368C60.0571 31.9019 59.7118 32.3654 59.169 32.7574C58.6258 33.149 57.9815 33.3452 57.2345 33.3452C56.699 33.3452 56.0065 33.2291 55.5426 32.9964C55.0786 32.7636 54.6545 32.4142 54.27 31.9484L53.9757 33.107H49.7232V14.9227L54.2738 14.9226ZM14.8002 33.1075H19.5239V14.9231H14.8002V33.1075ZM27.2612 14.9226C27.4413 16.0235 27.63 17.3157 27.8275 18.7982L28.5043 23.4179L29.5984 14.9229H35.769V33.1073H31.6446L31.6297 20.8335L29.9776 33.1073H27.0307L25.2894 21.1004L25.2745 33.1073H21.137V14.9229L27.2612 14.9226ZM40.9089 14.923C43.1953 14.923 44.5108 15.028 45.3164 15.2374C46.1224 15.4465 46.7355 15.7903 47.1551 16.2689C47.5751 16.7474 47.8373 17.2802 47.9423 17.8668C48.0471 18.4537 48.1143 19.607 48.1143 21.3268V27.713C48.1143 29.343 48.023 30.433 47.8694 30.9824C47.7156 31.5324 47.4477 31.9622 47.0656 32.2723C46.6828 32.5824 46.2108 32.7993 45.6486 32.9225C45.0861 33.0461 44.2391 33.1077 43.1075 33.1077H37.3844V14.9233L40.9089 14.923ZM55.8668 28.6953C55.8668 29.5753 55.823 30.1313 55.7358 30.3626C55.6483 30.5941 55.268 30.7105 54.9795 30.7105C54.6983 30.7105 54.5108 30.5988 54.4158 30.3748C54.3208 30.151 54.2738 29.64 54.2738 28.8411V24.0354C54.2738 23.2069 54.3155 22.6905 54.3988 22.4849C54.4821 22.2801 54.6643 22.1771 54.9452 22.1771C55.2333 22.1771 55.62 22.2941 55.7187 22.5292C55.8172 22.7643 55.8667 23.2664 55.8667 24.0348L55.8668 28.6953ZM43.1559 18.196C43.3425 18.304 43.4622 18.4746 43.5143 18.7058C43.5663 18.9376 43.5928 19.4644 43.5928 20.2864V27.3364C43.5928 28.5471 43.5143 29.2883 43.3574 29.5611C43.2006 29.8343 42.7824 29.9704 42.1036 29.9704V18.0335C42.6183 18.0335 42.9693 18.0876 43.1559 18.196Z" fill="black"/>
</svg>
