<svg width="49" height="48" viewBox="0 0 49 48" fill="none" xmlns="http://www.w3.org/2000/svg">
<path d="M38.3276 38.1158C31.5245 38.473 30.1344 30.6884 27.4654 30.7439C26.3281 30.7677 25.4317 31.9568 25.8253 33.3426C26.0418 34.1045 26.6423 35.2218 27.0206 35.9151C28.3551 38.3616 26.3822 41.1303 24.0735 41.3645C20.2368 41.7537 18.6364 39.528 18.7354 37.2496C18.8467 34.6919 21.0154 32.0784 18.7911 30.9663C16.4601 29.8009 14.5652 34.3582 12.3346 35.3754C10.3158 36.2961 7.51333 35.5822 6.51701 33.3404C5.81722 31.7651 5.94449 28.7318 9.06022 27.5744C11.0064 26.8516 15.3435 28.5198 15.566 26.4068C15.8224 23.9711 11.0097 23.7657 9.56075 23.1816C6.99685 22.1484 5.48359 19.9374 6.66922 17.5655C7.5588 15.7863 10.1762 15.0624 12.1741 15.8418C14.5674 16.7754 14.9516 19.2578 16.1778 20.2901C17.2341 21.1799 18.6798 21.2912 19.6253 20.6795C20.3225 20.2282 20.5546 19.2371 20.2916 18.3318C19.9426 17.1299 19.0166 16.3799 18.1131 15.645C16.5053 14.338 14.2354 13.2141 15.6084 9.64644C16.7339 6.7227 20.0349 6.61739 20.0349 6.61739C21.3463 6.46991 22.5207 6.86591 23.4777 7.72091C24.7572 8.86391 25.0063 10.3917 24.7922 12.0216C24.5966 13.5095 24.07 14.8126 23.7954 16.2867C23.4768 17.9981 24.3915 19.7226 26.131 19.7898C28.4191 19.8782 29.1051 18.1195 29.3851 17.0048C29.795 15.3738 30.3329 13.8595 31.8466 12.9059C34.0191 11.5371 37.0368 11.8371 38.4369 14.4678C39.5443 16.5493 39.1887 19.4148 37.49 20.9795C36.7278 21.6813 35.8114 21.9288 34.8201 21.9357C33.3986 21.9458 31.9777 21.9109 30.6582 22.5761C29.7599 23.0288 29.3685 23.7665 29.3686 24.7552C29.3686 25.7189 29.8703 26.3482 30.6831 26.7578C32.2141 27.5294 33.904 27.6872 35.5578 27.9768C37.9561 28.3968 40.0647 29.2415 41.4185 31.467C41.4307 31.4866 41.4425 31.5063 41.4541 31.5262C43.0089 34.1612 41.3829 37.9552 38.3276 38.1158Z" fill="#0AC855"/>
</svg>
