<svg width="76" height="48" viewBox="0 0 76 48" fill="none" xmlns="http://www.w3.org/2000/svg">
<rect x="6.16895" y="3" width="63" height="42" rx="2" fill="#333333"/>
<path fill-rule="evenodd" clip-rule="evenodd" d="M13.6602 8.49833C13.1685 8.41449 12.6769 8.33068 12.1848 8.25H11.5166C11.5166 8.25 11.163 8.43222 11.0264 8.48428C9.27574 9.13507 8.61845 10.1373 8.83321 12.018C9.78335 20.4327 10.74 28.8473 11.7227 37.2685C12.0025 39.6894 13.2 40.633 15.6339 40.3662C17.0509 40.2124 18.4646 40.0085 19.8773 39.8047C20.437 39.724 20.9965 39.6433 21.5561 39.5658C24.4032 39.172 27.2488 38.7751 30.0944 38.3781C32.9399 37.9811 35.7855 37.5841 38.6327 37.1904C39.8366 37.0212 40.6696 36.3509 40.9299 35.2185C40.9583 35.0959 40.9908 34.9696 41.0239 34.8409C41.2493 33.9653 41.5028 32.9807 40.6631 32.3225C36.2963 28.9254 36.2898 22.2939 40.6306 18.8903C40.8518 18.7211 41.0861 18.3892 41.0926 18.1289C41.1317 16.925 41.1447 15.7145 41.0666 14.5106C40.969 13.0398 40.0904 12.1352 38.6066 11.9334C35.399 11.4996 32.1913 11.0709 28.9837 10.6422C24.9741 10.1063 20.9646 9.57037 16.955 9.02443C15.8503 8.87175 14.7548 8.68497 13.6602 8.49833ZM36.1076 15.0963C37.0643 15.0963 37.8582 15.8642 37.8712 16.8143C37.8842 17.7449 37.0968 18.5649 36.1532 18.604C35.2095 18.63 34.396 17.8686 34.3635 16.9119C34.3245 15.8902 35.0924 15.0963 36.1076 15.0963ZM16.1806 24.1944H14.4495V22.8864H14.7879V23.8105H15.1393V22.997H15.4777V23.8105H15.8422V22.8734H16.1806V24.1944ZM15.4842 24.9946H16.1806V24.6172H14.4495V24.9946H15.1328V25.6975H14.4495V26.0749H16.1806V25.6975H15.4842V24.9946ZM16.1806 26.8951H14.8009V26.368H14.4495V27.7997H14.8009V27.2726H16.1806V26.8951Z" fill="#227D3A"/>
<path fill-rule="evenodd" clip-rule="evenodd" d="M48.1991 19.2224V14.5693H51.6288V32.0234C50.7876 31.9922 49.9471 31.9716 49.1076 31.9509C47.1414 31.9026 45.181 31.8544 43.2337 31.672C41.5807 31.5158 40.4418 30.3378 39.6674 28.8866C38.151 26.0297 38.7432 22.2616 41.2097 20.3874C42.0818 19.7301 43.3248 19.4437 44.4506 19.268C45.2652 19.1375 46.1016 19.1657 46.9856 19.1955C47.3799 19.2088 47.7836 19.2224 48.1991 19.2224ZM48.1406 21.9622C47.8251 21.9622 47.5199 21.9582 47.2217 21.9542C46.5973 21.9458 46.004 21.9379 45.4138 21.9688C43.6762 22.0664 42.6024 23.2313 42.4462 25.112C42.277 27.1034 43.2076 28.7239 44.8606 29.0298C45.5943 29.1648 46.3528 29.1815 47.1169 29.1984C47.4576 29.2059 47.7994 29.2135 48.1406 29.2315V21.9622Z" fill="white"/>
<path fill-rule="evenodd" clip-rule="evenodd" d="M66.3561 27.2269C65.6207 29.9342 63.9026 31.6262 61.0717 31.815C59.3719 31.9274 57.6597 31.9 55.9307 31.8723C55.1575 31.8599 54.381 31.8475 53.6007 31.8475V14.6017H57.0564V19.2158C57.4414 19.2158 57.8151 19.215 58.1813 19.2143C58.8923 19.2128 59.5753 19.2115 60.2582 19.2158C63.8376 19.2483 65.6207 20.693 66.4342 24.1878L66.4356 24.1948C66.4571 24.2986 66.7118 25.5293 66.3561 27.2269ZM57.1345 29.2053C57.5847 29.1725 58.0441 29.1841 58.4989 29.1956C60.0298 29.2342 61.5093 29.2716 62.4123 27.6109C63.1998 26.1661 63.2649 24.5197 62.3017 23.1465C61.3614 21.8132 60.0377 21.8756 58.6981 21.9386C58.1742 21.9633 57.6478 21.9881 57.141 21.9295C57.1345 24.4025 57.1345 26.7388 57.1345 29.2053Z" fill="white"/>
<path d="M21.9725 19.4356C21.3987 19.4331 20.8163 19.4305 20.222 19.4305C20.222 18.0378 20.2024 15.5713 20.2024 15.5713V14.7904C20.2024 14.7904 17.749 14.7513 16.6426 14.7513V19.2352L14.5081 19.2548C14.5081 19.2548 14.4235 21.2917 14.4235 22.1898H16.6882V23.3807C16.6904 23.9687 16.6889 24.556 16.6875 25.143C16.6846 26.3167 16.6817 27.4895 16.7077 28.6651C16.7403 30.1945 17.6774 31.6652 18.9529 31.8865C19.9395 32.0577 20.9448 32.1041 21.9602 32.1511C22.4116 32.1719 22.865 32.1929 23.3197 32.2249V29.394C23.1392 29.394 22.9656 29.3958 22.7966 29.3977C22.4172 29.4017 22.0615 29.4055 21.7057 29.3875C20.9769 29.3549 20.3391 28.9905 20.3066 28.2681C20.251 26.8458 20.2613 25.4168 20.2719 23.9578C20.2762 23.3674 20.2805 22.7721 20.2805 22.1703C20.6336 22.1703 20.9773 22.1732 21.3144 22.1761C22.1021 22.1828 22.8541 22.1892 23.606 22.1573C24.2373 22.1312 24.5301 22.385 24.7514 22.9577C25.5909 25.1444 26.463 27.3245 27.3546 29.4916C27.4478 29.7196 27.5316 29.9681 27.6162 30.2188C27.8624 30.9484 28.115 31.697 28.6236 32.0167C29.1954 32.3734 30.0803 32.2692 30.9133 32.171C31.1135 32.1474 31.3108 32.1242 31.5 32.1078C31.858 32.0752 32.3591 31.7629 32.4958 31.4505C33.9253 28.2339 35.3154 24.9975 36.7046 21.7629C36.9091 21.2869 37.1135 20.8109 37.3181 20.3351C37.3927 20.1683 37.4347 19.9896 37.4862 19.7712C37.511 19.6658 37.538 19.5511 37.5719 19.424C37.251 19.424 36.9445 19.4277 36.6484 19.4314C35.9895 19.4394 35.3816 19.4469 34.78 19.411C34.1553 19.3784 33.8364 19.6062 33.6151 20.1854C32.9643 21.8904 32.281 23.576 31.5912 25.268C31.3647 25.8321 31.1213 26.3879 30.8574 26.9904C30.7195 27.3054 30.5759 27.6333 30.4263 27.9818C30.3579 27.8239 30.2998 27.6924 30.2491 27.5778C30.1599 27.3761 30.0939 27.2266 30.0358 27.0772C29.7981 26.4397 29.5584 25.8022 29.3184 25.1643C28.7109 23.549 28.1023 21.9308 27.5238 20.3025C27.2895 19.6452 26.9641 19.3914 26.2482 19.411C24.8415 19.4483 23.4347 19.4421 21.9725 19.4356Z" fill="white"/>
</svg>
