<svg width="49" height="48" viewBox="0 0 49 48" fill="none" xmlns="http://www.w3.org/2000/svg">
<path d="M14.1707 41.4066L11.9376 40.9789C11.9376 40.9789 12.902 40.8033 14.054 40.6396C14.1413 41.2026 14.1707 41.4066 14.1707 41.4066Z" fill="#00641E"/>
<path d="M33.9871 41.4066L36.2202 40.9789C36.2202 40.9789 35.2547 40.8033 34.1027 40.6396C34.0154 41.2026 33.9871 41.4066 33.9871 41.4066Z" fill="#00641E"/>
<path d="M11.846 40.9408C11.8558 40.9692 11.8962 40.9866 11.9376 40.979L14.1707 41.4066C12.218 41.5288 10.5914 42.4921 9.60853 43.7968C9.57689 43.8306 9.52999 43.8295 9.5158 43.7924C9.1798 42.4364 9.08708 40.9899 9.25617 39.5324C9.25508 39.5172 9.24308 39.5062 9.22344 39.5019C8.30599 39.2128 7.29144 39.0557 6.21144 39.071C6.15362 39.0775 6.15471 39.0208 6.2158 38.963C7.35908 37.8568 8.75108 36.9884 10.2838 36.4397C10.8151 37.9364 11.3365 39.4386 11.846 40.9408Z" fill="#0AC855"/>
<path d="M38.5504 43.7968C37.5674 42.492 35.9387 41.5288 33.9871 41.4066L36.2202 40.9789C36.2616 40.9866 36.302 40.9691 36.3118 40.9408C36.8202 39.4386 37.3373 37.9419 37.8674 36.444C39.4013 36.9928 40.7987 37.8557 41.9431 38.9629C42.0042 39.0208 42.0053 39.0775 41.9474 39.0709C40.8674 39.0557 39.8529 39.2128 38.9354 39.5019C38.9158 39.5062 38.9038 39.5171 38.9027 39.5324C39.0718 40.9899 38.9791 42.4364 38.6431 43.7924C38.6289 43.8295 38.582 43.8306 38.5504 43.7968Z" fill="#0AC855"/>
<path d="M30.7438 15.6655C29.63 14.5735 27.35 14.5212 26.3071 14.6139L26.2973 14.6117C26.3911 14.1655 26.8351 13.6255 27.4842 13.7357C27.5627 13.7499 27.626 13.667 27.5878 13.5972C26.9431 12.4135 25.0296 12.2761 23.7925 13.631C23.5154 12.6524 23.2056 11.5637 23.2056 11.5637L22.0176 11.7426L22.9951 13.7837C21.9042 12.8892 19.6394 12.9514 18.3904 14.1524C18.3271 14.2124 18.3707 14.3215 18.458 14.3204C19.0043 14.3182 19.424 14.435 20.0228 14.6015C20.2992 14.6784 20.6138 14.7659 20.9965 14.8572C20.7849 14.8594 20.5656 14.8844 20.342 14.927C19.5963 15.0681 18.7957 15.3119 18.1709 15.5021C17.815 15.6105 17.5161 15.7015 17.3169 15.7463C17.2154 15.7692 17.1642 15.9099 17.2504 15.947C19.8936 17.0925 20.6354 17.051 22.0689 16.0997C22.5282 16.7554 21.9925 17.7819 21.5562 18.1528C21.5071 18.1943 21.5333 18.2685 21.5998 18.275C24.4165 18.5674 24.7864 16.5928 24.8311 16.1826C25.7982 17.0032 27.0731 16.5987 28.2914 16.2122C29.151 15.9395 29.9825 15.6757 30.6576 15.8575C30.7525 15.8826 30.8104 15.7321 30.7438 15.6655Z" fill="#00912D"/>
<path d="M11.9376 40.979C19.9416 39.5761 28.2151 39.5761 36.2202 40.979C36.2616 40.9866 36.302 40.9692 36.3118 40.9408C37.0525 38.7557 37.8162 36.5761 38.6027 34.4019C38.6147 34.3714 38.5809 34.3365 38.5296 34.3277C29.0114 32.5888 19.1453 32.5888 9.62817 34.3277C9.5769 34.3365 9.54308 34.3714 9.55399 34.4019C10.3416 36.5761 11.1053 38.7557 11.846 40.9408C11.8558 40.9692 11.8962 40.9866 11.9376 40.979Z" fill="#00912D"/>
<path d="M12.41 33.8836C20.066 32.7644 27.8954 32.7524 35.5536 33.8542C37.4638 31.5982 38.5667 28.6898 38.3562 25.3156C38.0256 20.0313 34.9372 16.8578 30.4863 15.4658C30.5736 15.5313 30.6663 15.5913 30.7438 15.6655C30.8103 15.732 30.7525 15.8825 30.6576 15.8575C29.0256 15.4178 26.4805 17.5822 24.8311 16.1825C24.7863 16.5916 24.4165 18.5673 21.5998 18.2749C21.5332 18.2684 21.5071 18.1942 21.5562 18.1527C21.9925 17.7818 22.5282 16.7542 22.0689 16.0996C20.6354 17.0509 19.8936 17.0924 17.2503 15.9469C17.2285 15.9371 17.2372 15.9131 17.2318 15.8935C11.054 18.0895 9.46779 22.4564 9.75688 27.0993C9.92488 29.7807 10.9089 32.0553 12.41 33.8836Z" fill="#FA320A"/>
<path d="M12.3969 33.8857C10.8969 32.0595 9.92487 29.7784 9.75687 27.0992C9.46778 22.4563 11.054 18.0894 17.2318 15.8934C17.2372 15.913 17.2285 15.937 17.2503 15.9468C17.1641 15.9097 17.2154 15.769 17.3169 15.7461C17.8656 15.6228 19.1714 15.1472 20.342 14.9268C20.5656 14.8843 20.7849 14.8592 20.9965 14.8559C19.7845 14.5679 19.2565 14.317 18.458 14.3203C18.3707 14.3214 18.3271 14.2123 18.3903 14.1512C19.6394 12.9501 21.9041 12.889 22.9951 13.7835L22.0176 11.7414L23.2056 11.5635C23.2056 11.5635 23.5154 12.6512 23.7925 13.6308C25.0296 12.2759 26.9431 12.4134 27.5878 13.597C27.626 13.6668 27.5627 13.7497 27.4841 13.7355C26.8351 13.6254 26.3911 14.1654 26.2972 14.6115L26.3071 14.6137C27.35 14.521 29.63 14.5734 30.7438 15.6654C30.6663 15.5912 30.5736 15.5312 30.4863 15.4657C34.9372 16.8577 38.0256 20.0312 38.3561 25.3155C38.5667 28.6897 37.4638 31.5981 35.5536 33.8541C36.134 33.937 36.7111 34.0341 37.2892 34.1301C39.7231 31.1519 41.1292 27.3763 41.1292 23.3257C41.1292 14.0955 33.6281 6.86499 24.0532 6.86499C14.4783 6.86499 6.97723 14.0955 6.97723 23.3257C6.97723 27.3828 8.38342 31.1606 10.8194 34.1377C11.3441 34.0504 11.87 33.9643 12.3969 33.8857Z" fill="#FFD700"/>
<path d="M10.8194 34.1378C8.38341 31.1607 6.97723 27.3829 6.97723 23.3258C6.97723 14.0956 14.4783 6.86504 24.0532 6.86504C33.6281 6.86504 41.1292 14.0956 41.1292 23.3258C41.1292 27.3763 39.723 31.152 37.2892 34.1301C37.5794 34.1781 37.8696 34.2163 38.1598 34.2687C40.5085 31.2436 41.9136 27.4505 41.9136 23.3258C41.9136 13.4607 33.9172 6.07959 24.0532 6.07959C14.1881 6.07959 6.19177 13.4607 6.19177 23.3258C6.19177 27.4549 7.60014 31.2501 9.95323 34.2752C10.2412 34.224 10.5303 34.1858 10.8194 34.1378Z" fill="#FF6A13"/>
</svg>
