<svg width="49" height="48" viewBox="0 0 49 48" fill="none" xmlns="http://www.w3.org/2000/svg">
<path d="M41.1652 25.4551C40.8232 19.9723 38.0349 15.8702 33.8394 13.5769C33.8632 13.7105 33.7443 13.8775 33.6089 13.8184C30.8647 12.6179 26.2094 16.503 22.9562 14.4685C22.9806 15.1986 22.8381 18.7604 17.8207 18.967C17.7023 18.9718 17.6371 18.8509 17.712 18.7652C18.383 17.9999 19.0604 16.0623 18.0863 15.0293C16.0002 16.8986 14.7887 17.6022 10.7888 16.6738C8.22778 19.3516 6.7766 23.0167 7.06148 27.5823C7.64272 36.9024 16.3726 42.2299 25.1637 41.6813C33.9543 41.1332 41.7466 34.7752 41.1652 25.4551Z" fill="#FA320A"/>
<path d="M25.1439 11.3394C26.9503 10.9089 32.1461 11.2975 33.8108 13.5058C33.9107 13.6382 33.7701 13.8888 33.6089 13.8185C30.8648 12.618 26.2094 16.503 22.9562 14.4686C22.9807 15.1987 22.8381 18.7605 17.8207 18.9671C17.7023 18.9719 17.6371 18.851 17.712 18.7653C18.383 18 19.0603 16.0623 18.0863 15.0294C15.8139 17.0657 14.582 17.7201 9.64986 16.3869C9.48844 16.3434 9.54347 16.084 9.71519 16.0185C10.6474 15.6622 12.7593 14.1019 14.7573 13.4141C15.1376 13.2833 15.5168 13.1817 15.8869 13.1227C13.687 12.9261 12.6954 12.6202 11.2962 12.8312C11.1428 12.8543 11.0386 12.6758 11.1337 12.5534C13.019 10.125 16.492 9.39163 18.6348 10.6817C17.314 9.04509 16.2794 7.73988 16.2794 7.73988L18.7309 6.34741C18.7309 6.34741 19.7437 8.61027 20.4806 10.2572C22.3042 7.56272 25.6972 7.31403 27.1307 9.22579C27.2158 9.33939 27.1269 9.50096 26.9849 9.49758C25.8181 9.46918 25.1757 10.5304 25.127 11.3375L25.1439 11.3394Z" fill="#00912D"/>
</svg>
