<svg width="93" height="48" viewBox="0 0 93 48" fill="none" xmlns="http://www.w3.org/2000/svg">
<path d="M24.1689 4C13.1689 4 4.16895 13 4.16895 24C4.16895 35 13.1689 44 24.1689 44C28.2244 44 32.008 42.7767 35.169 40.6809C40.5818 37.092 44.1689 30.9446 44.1689 24.0001C44.1689 17.0555 40.5818 10.9081 35.1689 7.31919C37.0543 6.06916 39.1611 5.12953 41.415 4.57471C46.7792 9.34429 50.1689 16.2911 50.1689 24.0001C50.1689 31.709 46.7793 38.6558 41.415 43.4254C42.94 43.8008 44.5324 44 46.1689 44C50.2244 44 54.008 42.7767 57.169 40.6809C62.5818 37.092 66.1689 30.9446 66.1689 24.0001C66.1689 17.0555 62.5818 10.9081 57.1689 7.31919C59.0543 6.06916 61.1611 5.12953 63.415 4.57471C68.7792 9.34429 72.169 16.2911 72.169 24.0001C72.169 31.709 68.7793 38.6558 63.415 43.4254C64.94 43.8008 66.5324 44 68.169 44C79.169 44 88.169 35 88.169 24C88.169 13 79.169 4 68.169 4C64.1135 4 60.3299 5.22337 57.1689 7.31919C54.008 5.22337 50.2244 4 46.1689 4C42.1135 4 38.3299 5.22337 35.1689 7.31919C32.008 5.22337 28.2244 4 24.1689 4Z" fill="#FF3333"/>
</svg>
