<svg width="48" height="48" viewBox="0 0 48 48" fill="none" xmlns="http://www.w3.org/2000/svg">
<path fill-rule="evenodd" clip-rule="evenodd" d="M32.1645 24.0003C32.1645 28.5105 28.5105 32.1671 24.0003 32.1671C19.49 32.1671 15.8334 28.5105 15.8334 24.0003C15.8334 19.49 19.49 15.8334 24.0003 15.8334C28.5105 15.8334 32.1645 19.49 32.1645 24.0003ZM45 26.7325V21.2675L39.3499 19.5175L37.9084 16.3005L40.7428 11.0908L36.9645 7.28375L31.7017 10.1071L28.4825 8.65453L26.7325 3H21.2675L19.5175 8.65453L16.8882 10.0938L11.0908 7.25944L7.28818 11.0444L10.1071 16.886L9.24007 19.5175L3 21.2675V26.7325L8.65674 28.4825L10.0938 31.1162L7.25944 36.9114L11.0421 40.7185L16.886 37.8973L19.5175 39.3477L21.2675 45H26.7325L28.4825 39.3499L31.7039 37.9084L36.9136 40.7406L40.7185 36.9601L37.8973 31.7017L39.3499 28.4825L45 26.7325Z" fill="#FAFAFA"/>
</svg>
