<svg width="49" height="48" viewBox="0 0 49 48" fill="none" xmlns="http://www.w3.org/2000/svg">
<path d="M44.7225 24.4725C44.7225 23.09 44.6 21.7775 44.39 20.5H24.615V28.3925H35.9375C35.43 30.9825 33.9425 33.17 31.7375 34.6575V39.9075H38.4925C42.4475 36.25 44.7225 30.86 44.7225 24.4725Z" fill="#4285F4"/>
<path d="M24.6151 45.0001C30.2851 45.0001 35.0276 43.1101 38.4926 39.9076L31.7376 34.6576C29.8476 35.9176 27.4501 36.6876 24.6151 36.6876C19.1376 36.6876 14.5001 32.9951 12.8376 28.0076H5.87256V33.4151C9.32006 40.2751 16.4076 45.0001 24.6151 45.0001Z" fill="#34A853"/>
<path d="M12.8375 28.0075C12.4 26.7475 12.1725 25.4 12.1725 24C12.1725 22.6 12.4175 21.2525 12.8375 19.9925V14.585H5.87249C4.43749 17.42 3.61499 20.605 3.61499 24C3.61499 27.395 4.43749 30.58 5.87249 33.415L12.8375 28.0075Z" fill="#FBBC05"/>
<path d="M24.6151 11.3125C27.7126 11.3125 30.4776 12.38 32.6651 14.4625L38.6501 8.4775C35.0276 5.0825 30.2851 3 24.6151 3C16.4076 3 9.32006 7.725 5.87256 14.585L12.8376 19.9925C14.5001 15.005 19.1376 11.3125 24.6151 11.3125Z" fill="#EA4335"/>
</svg>
