<svg width="49" height="48" viewBox="0 0 49 48" fill="none" xmlns="http://www.w3.org/2000/svg">
<path d="M2.24895 35.816C2.38227 35.5973 2.59559 35.5837 2.88895 35.775C9.55558 39.7383 16.8089 41.72 24.6489 41.72C29.8756 41.72 35.0356 40.7223 40.1289 38.727C40.2623 38.6723 40.4556 38.5903 40.7089 38.481C40.9623 38.3717 41.1423 38.2897 41.2489 38.235C41.6489 38.071 41.9623 38.153 42.1889 38.481C42.4156 38.809 42.3423 39.1097 41.9689 39.383C41.4889 39.7383 40.8756 40.1483 40.1289 40.613C37.8356 42.007 35.2756 43.0867 32.4489 43.852C29.6223 44.6173 26.8623 45 24.1689 45C20.0089 45 16.0756 44.2551 12.3689 42.7655C8.66227 41.2758 5.34227 39.178 2.40895 36.472C2.24895 36.3353 2.16895 36.1987 2.16895 36.062C2.16895 35.98 2.19559 35.898 2.24895 35.816ZM14.2889 24.131C14.2889 22.245 14.7423 20.6323 15.6489 19.293C16.5556 17.9537 17.7956 16.9423 19.3689 16.259C20.8089 15.6303 22.5823 15.1793 24.6889 14.906C25.4089 14.824 26.5823 14.7147 28.2089 14.578V13.881C28.2089 12.1317 28.0223 10.9563 27.6489 10.355C27.0889 9.535 26.2089 9.125 25.0089 9.125H24.6889C23.8089 9.207 23.0489 9.494 22.4089 9.986C21.7689 10.478 21.3556 11.1613 21.1689 12.036C21.0623 12.5827 20.7956 12.897 20.3689 12.979L15.7689 12.405C15.3156 12.2957 15.0889 12.0497 15.0889 11.667C15.0889 11.585 15.1023 11.4893 15.1289 11.38C15.5823 8.94735 16.6956 7.14335 18.4689 5.968C20.2423 4.79265 22.3156 4.13665 24.6889 4H25.6889C28.7289 4 31.1023 4.80635 32.8089 6.419C33.0766 6.69358 33.324 6.98823 33.5489 7.3005C33.7756 7.61485 33.9556 7.895 34.0889 8.141C34.2223 8.387 34.3423 8.74235 34.4489 9.207C34.5556 9.67165 34.6356 9.99285 34.6889 10.1705C34.7423 10.3482 34.7823 10.7308 34.8089 11.3185C34.8356 11.9062 34.8489 12.2547 34.8489 12.364V22.286C34.8489 22.9967 34.9489 23.6458 35.1489 24.2335C35.3489 24.8212 35.5423 25.2448 35.7289 25.5045C35.9156 25.7642 36.2223 26.181 36.6489 26.755C36.8089 27.001 36.8889 27.2197 36.8889 27.411C36.8889 27.6297 36.7823 27.821 36.5689 27.985C34.3556 29.953 33.1556 31.019 32.9689 31.183C32.6489 31.429 32.2623 31.4563 31.8089 31.265C31.4356 30.937 31.1089 30.6227 30.8289 30.322C30.5489 30.0213 30.3489 29.8027 30.2289 29.666C30.1089 29.5293 29.9156 29.2628 29.6489 28.8665C29.3823 28.4702 29.1956 28.2037 29.0889 28.067C27.5956 29.7343 26.1289 30.773 24.6889 31.183C23.7823 31.4563 22.6623 31.593 21.3289 31.593C19.2756 31.593 17.5889 30.9438 16.2689 29.6455C14.9489 28.3472 14.2889 26.509 14.2889 24.131ZM21.1689 23.311C21.1689 24.377 21.4289 25.2312 21.9489 25.8735C22.4689 26.5158 23.1689 26.837 24.0489 26.837C24.1289 26.837 24.2423 26.8233 24.3889 26.796C24.5356 26.7687 24.6356 26.755 24.6889 26.755C25.8089 26.4543 26.6756 25.7163 27.2889 24.541C27.5823 24.0217 27.8023 23.4545 27.9489 22.8395C28.0956 22.2245 28.1756 21.7257 28.1889 21.343C28.2023 20.9603 28.2089 20.3317 28.2089 19.457V18.432C26.6623 18.432 25.4889 18.5413 24.6889 18.76C22.3423 19.4433 21.1689 20.9603 21.1689 23.311ZM37.9689 36.513C38.0223 36.4037 38.1023 36.2943 38.2089 36.185C38.8756 35.7203 39.5156 35.406 40.1289 35.242C41.1423 34.9687 42.1289 34.8183 43.0889 34.791C43.3556 34.7637 43.6089 34.7773 43.8489 34.832C45.0489 34.9413 45.7689 35.1463 46.0089 35.447C46.1156 35.611 46.1689 35.857 46.1689 36.185V36.472C46.1689 37.4287 45.9156 38.5562 45.4089 39.8545C44.9023 41.1528 44.1956 42.1983 43.2889 42.991C43.1556 43.1003 43.0356 43.155 42.9289 43.155C42.8756 43.155 42.8223 43.1413 42.7689 43.114C42.6089 43.032 42.5689 42.8817 42.6489 42.663C43.6356 40.285 44.1289 38.6313 44.1289 37.702C44.1289 37.4013 44.0756 37.1827 43.9689 37.046C43.7023 36.718 42.9556 36.554 41.7289 36.554C41.2756 36.554 40.7423 36.5813 40.1289 36.636C39.4623 36.718 38.8489 36.8 38.2889 36.882C38.1289 36.882 38.0223 36.8547 37.9689 36.8C37.9156 36.7453 37.9023 36.6907 37.9289 36.636C37.9289 36.6087 37.9423 36.5676 37.9689 36.513Z" fill="white"/>
</svg>
