<svg width="48" height="48" viewBox="0 0 48 48" fill="none" xmlns="http://www.w3.org/2000/svg">
<path fill-rule="evenodd" clip-rule="evenodd" d="M13.2612 3.50004C13.8443 3.49559 14.3771 3.82949 14.6274 4.35619L19.8482 15.3426L22.3415 20.3292C22.712 21.0701 22.4117 21.9712 21.6707 22.3416C20.9297 22.7121 20.0287 22.4118 19.6582 21.6708L17.5728 17.5H9.21976L7.36776 21.6155C7.02781 22.371 6.1398 22.7078 5.38434 22.3679C4.62887 22.0279 4.29204 21.1399 4.632 20.3845L6.88538 15.377L11.9081 4.37696C12.1503 3.8465 12.678 3.5045 13.2612 3.50004ZM10.5838 14.5H16.1263L13.2997 8.5519L10.5838 14.5Z" fill="#FAFAFA"/>
<path d="M4.49988 27C4.49988 26.1716 5.17146 25.5 5.99988 25.5H20.9999C21.5935 25.5 22.1312 25.85 22.3715 26.3928C22.6118 26.9356 22.5094 27.5691 22.1103 28.0085L9.85723 41.5H20.9999C21.8283 41.5 22.4999 42.1716 22.4999 43C22.4999 43.8284 21.8283 44.5 20.9999 44.5H6.46863C5.87504 44.5 5.33728 44.15 5.09701 43.6072C4.85674 43.0644 4.95915 42.4309 5.35823 41.9915L17.6113 28.5H5.99988C5.17146 28.5 4.49988 27.8284 4.49988 27Z" fill="#FAFAFA"/>
<path d="M33.9999 41C33.9999 41.8284 34.6715 42.5 35.4999 42.5C36.3283 42.5 36.9999 41.8284 36.9999 41L36.9999 9.62132L40.9392 13.5607C41.525 14.1464 42.4748 14.1464 43.0605 13.5607C43.6463 12.9749 43.6463 12.0251 43.0605 11.4393L36.5605 4.93934C35.9748 4.35355 35.025 4.35355 34.4392 4.93934L27.9392 11.4393C27.3534 12.0251 27.3534 12.9749 27.9392 13.5607C28.525 14.1464 29.4748 14.1464 30.0605 13.5607L33.9999 9.62132L33.9999 41Z" fill="#FAFAFA"/>
</svg>
