<svg width="48" height="48" viewBox="0 0 48 48" fill="none" xmlns="http://www.w3.org/2000/svg">
<path d="M8 14H2V17H5V35H8V14Z" fill="#FAFAFA"/>
<path d="M43.6066 22L39.3638 26.2428L35.1211 22L32.9998 24.1213L37.2425 28.3641L33 32.6066L35.1213 34.7279L39.3638 30.4854L43.6064 34.7279L45.7277 32.6066L41.4852 28.3641L45.7279 24.1213L43.6066 22Z" fill="#FAFAFA"/>
<path d="M11 32H14V35H11V32Z" fill="#FAFAFA"/>
<path d="M17 14H26C26.7956 14 27.5587 14.3161 28.1213 14.8787C28.6839 15.4413 29 16.2044 29 17V32C29 32.7957 28.6839 33.5587 28.1213 34.1213C27.5587 34.6839 26.7956 35 26 35H17V32H26V26H20V23H26V17H17V14Z" fill="#FAFAFA"/>
</svg>
