<svg width="48" height="48" viewBox="0 0 48 48" fill="none" xmlns="http://www.w3.org/2000/svg">
<path d="M19.7573 31.3485L20.5338 34.2462L14.7372 35.7994C18.3235 38.6103 23.142 39.759 27.8822 38.4889C35.5596 36.4317 40.2424 28.7769 38.716 21.0921L41.6191 20.3142C43.5704 29.6016 37.937 38.9005 28.6587 41.3866C23.1968 42.8501 17.6484 41.6375 13.4055 38.5526L14.8769 44.0442L11.9791 44.8206L9.13211 34.1955L19.7573 31.3485Z" fill="#FAFAFA"/>
<path d="M9.28393 26.9079C7.75753 19.223 12.4402 11.5682 20.1177 9.51109C24.8579 8.24095 29.6764 9.38963 33.2628 12.2005L27.4662 13.7537L28.2426 16.6515L38.8678 13.8045L36.0208 3.17932L33.123 3.95578L34.5945 9.4474C30.3515 6.36243 24.8031 5.14981 19.3412 6.61332C10.0629 9.09942 4.42948 18.3983 6.38084 27.6857L9.28393 26.9079Z" fill="#FAFAFA"/>
</svg>
