<svg width="48" height="48" viewBox="0 0 48 48" fill="none" xmlns="http://www.w3.org/2000/svg">
<path fill-rule="evenodd" clip-rule="evenodd" d="M41.4609 35.667C43.7684 32.2135 45 28.1534 45 24C44.9937 18.4324 42.7792 13.0946 38.8423 9.15768C34.9054 5.22078 29.5676 3.00627 24 3C19.8466 3 15.7865 4.23162 12.333 6.53913C8.8796 8.84665 6.18798 12.1264 4.59854 15.9636C3.0091 19.8009 2.59323 24.0233 3.40352 28.0969C4.21381 32.1705 6.21386 35.9123 9.15076 38.8492C12.0877 41.7861 15.8295 43.7862 19.9031 44.5965C23.9767 45.4068 28.1991 44.9909 32.0364 43.4015C35.8736 41.812 39.1534 39.1204 41.4609 35.667ZM24 11.2929L11.2975 23.9954L14.084 26.8559L22 18.978V36.5H26V18.9832L33.8597 26.8527L36.7067 23.9996L24 11.2929Z" fill="#FAFAFA"/>
</svg>
