<svg width="48" height="48" viewBox="0 0 48 48" fill="none" xmlns="http://www.w3.org/2000/svg">
<path fill-rule="evenodd" clip-rule="evenodd" d="M19.8332 13.264C21.0666 12.4399 22.5166 12 24 12C25.9891 12 27.8968 12.7902 29.3033 14.1967C30.7098 15.6032 31.5 17.5109 31.5 19.5C31.5 20.9834 31.0601 22.4334 30.236 23.6668C29.4119 24.9001 28.2406 25.8614 26.8701 26.4291C25.4997 26.9968 23.9917 27.1453 22.5368 26.8559C21.082 26.5665 19.7456 25.8522 18.6967 24.8033C17.6478 23.7544 16.9335 22.418 16.6441 20.9632C16.3547 19.5083 16.5032 18.0003 17.0709 16.6299C17.6386 15.2594 18.5999 14.0881 19.8332 13.264ZM21.4999 23.2416C22.24 23.7361 23.11 24 24 24C25.1931 23.9986 26.3369 23.5241 27.1805 22.6805C28.0241 21.8369 28.4987 20.6931 28.5 19.5C28.5 18.61 28.2361 17.74 27.7416 16.9999C27.2472 16.2599 26.5443 15.6831 25.7221 15.3425C24.8998 15.0019 23.995 14.9128 23.1221 15.0865C22.2492 15.2601 21.4474 15.6887 20.818 16.318C20.1887 16.9474 19.7601 17.7492 19.5865 18.6221C19.4128 19.495 19.502 20.3998 19.8425 21.2221C20.1831 22.0443 20.7599 22.7471 21.4999 23.2416Z" fill="#FAFAFA"/>
<path fill-rule="evenodd" clip-rule="evenodd" d="M12.333 6.53914C15.7865 4.23163 19.8466 3 24 3C29.5676 3.00627 34.9054 5.22078 38.8423 9.15769C42.7792 13.0946 44.9937 18.4324 45 24C45 28.1534 43.7684 32.2135 41.4609 35.667C39.1534 39.1204 35.8736 41.812 32.0364 43.4015C28.1991 44.9909 23.9767 45.4068 19.9031 44.5965C15.8295 43.7862 12.0877 41.7861 9.15077 38.8492C6.21386 35.9123 4.21381 32.1705 3.40352 28.0969C2.59323 24.0233 3.0091 19.8009 4.59854 15.9636C6.18798 12.1264 8.8796 8.84665 12.333 6.53914ZM15 37.5V39.5648C17.7313 41.1596 20.8372 42 24 42C27.1628 42 30.2688 41.1596 33 39.5648V37.5C32.9987 36.3069 32.5242 35.1631 31.6805 34.3195C30.8369 33.4758 29.6931 33.0013 28.5 33H19.5C18.3069 33.0013 17.1631 33.4758 16.3195 34.3195C15.4758 35.1631 15.0013 36.3069 15 37.5ZM33.7564 32.1618C35.1572 33.5439 35.9589 35.4211 35.9888 37.3887C38.7089 34.9598 40.6272 31.762 41.4895 28.2187C42.3519 24.6754 42.1176 20.9537 40.8178 17.5465C39.518 14.1393 37.2139 11.2072 34.2107 9.13855C31.2075 7.0699 27.6467 5.96224 24 5.96224C20.3533 5.96224 16.7925 7.0699 13.7893 9.13855C10.7861 11.2072 8.48203 14.1393 7.18222 17.5465C5.88241 20.9537 5.64817 24.6754 6.51051 28.2187C7.37285 31.762 9.2911 34.9598 12.0113 37.3887C12.0411 35.4211 12.8428 33.5439 14.2436 32.1618C15.6444 30.7797 17.5322 30.0034 19.5 30H28.5C30.4679 30.0034 32.3556 30.7797 33.7564 32.1618Z" fill="#FAFAFA"/>
</svg>
